<svg width="1655" height="999" xmlns="http://www.w3.org/2000/svg" xmlns:xlink="http://www.w3.org/1999/xlink" overflow="hidden"><defs><clipPath id="clip0"><rect x="3102" y="1324" width="1655" height="999"/></clipPath><clipPath id="clip1"><rect x="3105" y="1329" width="1650" height="990"/></clipPath><clipPath id="clip2"><rect x="3105" y="1329" width="1650" height="990"/></clipPath><clipPath id="clip3"><rect x="3105" y="1329" width="1650" height="990"/></clipPath><clipPath id="clip4"><rect x="3105" y="1329" width="1650" height="990"/></clipPath><clipPath id="clip5"><rect x="3333" y="1379" width="1333" height="740"/></clipPath><clipPath id="clip6"><rect x="3105" y="1329" width="1650" height="990"/></clipPath><clipPath id="clip7"><rect x="3105" y="1329" width="1650" height="990"/></clipPath><clipPath id="clip8"><rect x="3105" y="1329" width="1650" height="990"/></clipPath><clipPath id="clip9"><rect x="3105" y="1329" width="1650" height="990"/></clipPath><clipPath id="clip10"><rect x="3105" y="1329" width="1650" height="990"/></clipPath><clipPath id="clip11"><rect x="3105" y="1329" width="1650" height="990"/></clipPath><clipPath id="clip12"><rect x="3105" y="1329" width="1650" height="990"/></clipPath><clipPath id="clip13"><rect x="3105" y="1329" width="1650" height="990"/></clipPath><clipPath id="clip14"><rect x="3105" y="1329" width="1650" height="990"/></clipPath><clipPath id="clip15"><rect x="3105" y="1329" width="1650" height="990"/></clipPath><clipPath id="clip16"><rect x="3105" y="1329" width="1650" height="990"/></clipPath><clipPath id="clip17"><rect x="3105" y="1329" width="1650" height="990"/></clipPath><clipPath id="clip18"><rect x="3105" y="1329" width="1650" height="990"/></clipPath><clipPath id="clip19"><rect x="3105" y="1329" width="1650" height="990"/></clipPath><clipPath id="clip20"><rect x="3105" y="1329" width="1650" height="990"/></clipPath><clipPath id="clip21"><rect x="3105" y="1329" width="1650" height="990"/></clipPath><clipPath id="clip22"><rect x="3105" y="1329" width="1650" height="990"/></clipPath><clipPath id="clip23"><rect x="3105" y="1329" width="1650" height="990"/></clipPath><clipPath id="clip24"><rect x="3105" y="1329" width="1650" height="990"/></clipPath></defs><g clip-path="url(#clip0)" transform="translate(-3102 -1324)"><rect x="3105" y="1329" width="1650" height="990" fill="#FFFFFF" fill-opacity="1"/><g clip-path="url(#clip1)"><path d="M3333.5 1968.56 4662.5 1968.56M3333.5 1821.56 4662.5 1821.56M3333.5 1673.56 4662.5 1673.56M3333.5 1526.55 4662.5 1526.55M3333.5 1379.5 4662.5 1379.5" stroke="#D9D9D9" stroke-width="3.4375" stroke-linecap="butt" stroke-linejoin="round" stroke-miterlimit="10" stroke-opacity="1" fill="none" fill-rule="nonzero"/></g><g clip-path="url(#clip2)"><path d="M3480.61 1379.5 3480.61 2115.5M3628.62 1379.5 3628.62 2115.5M3776.62 1379.5 3776.62 2115.5M3924.63 1379.5 3924.63 2115.5M4071.63 1379.5 4071.63 2115.5M4219.64 1379.5 4219.64 2115.5M4367.64 1379.5 4367.64 2115.5M4515.65 1379.5 4515.65 2115.5M4662.5 1379.5 4662.5 2115.5" stroke="#D9D9D9" stroke-width="3.4375" stroke-linecap="butt" stroke-linejoin="round" stroke-miterlimit="10" stroke-opacity="1" fill="none" fill-rule="nonzero"/></g><g clip-path="url(#clip3)"><path d="M0 0 0.000360892 736" stroke="#BFBFBF" stroke-width="3.4375" stroke-linecap="butt" stroke-linejoin="round" stroke-miterlimit="10" stroke-opacity="1" fill="none" fill-rule="evenodd" transform="matrix(1 0 0 -1 3333.5 2115.5)"/></g><g clip-path="url(#clip4)"><path d="M3333.5 2115.5 4662.5 2115.5" stroke="#BFBFBF" stroke-width="3.4375" stroke-linecap="butt" stroke-linejoin="round" stroke-miterlimit="10" stroke-opacity="1" fill="none" fill-rule="evenodd"/></g><g clip-path="url(#clip5)"><path d="M3333.5 2114.5 3333.61 2114.57 3334.61 2113.57 3335.61 2111.57 3337.61 2107.57 3342.61 2098.57 3351.61 2089.57 3370.61 2061.57 3408.61 2011.57 3484.61 1933.56 3635.62 1782.56 3938.63 1579.55 4543.5 1498.5" stroke="#4472C4" stroke-width="6.875" stroke-linecap="round" stroke-linejoin="round" stroke-miterlimit="10" stroke-opacity="1" fill="none" fill-rule="nonzero"/></g><g clip-path="url(#clip6)"><path d="M3344.71 2114.67C3344.71 2120.74 3339.78 2125.67 3333.71 2125.67 3327.63 2125.67 3322.71 2120.74 3322.71 2114.67 3322.71 2108.59 3327.63 2103.67 3333.71 2103.67 3339.78 2103.67 3344.71 2108.59 3344.71 2114.67Z" stroke="#4472C4" stroke-width="3.4375" stroke-linecap="butt" stroke-linejoin="round" stroke-miterlimit="10" stroke-opacity="1" fill="#4472C4" fill-rule="nonzero" fill-opacity="1"/><path d="M3344.71 2114.67C3344.71 2120.74 3339.78 2125.67 3333.71 2125.67 3327.63 2125.67 3322.71 2120.74 3322.71 2114.67 3322.71 2108.59 3327.63 2103.67 3333.71 2103.67 3339.78 2103.67 3344.71 2108.59 3344.71 2114.67Z" stroke="#4472C4" stroke-width="3.4375" stroke-linecap="butt" stroke-linejoin="round" stroke-miterlimit="10" stroke-opacity="1" fill="#4472C4" fill-rule="nonzero" fill-opacity="1"/><path d="M3345.71 2113.67C3345.71 2119.74 3340.78 2124.67 3334.71 2124.67 3328.63 2124.67 3323.71 2119.74 3323.71 2113.67 3323.71 2107.59 3328.63 2102.67 3334.71 2102.67 3340.78 2102.67 3345.71 2107.59 3345.71 2113.67Z" stroke="#4472C4" stroke-width="3.4375" stroke-linecap="butt" stroke-linejoin="round" stroke-miterlimit="10" stroke-opacity="1" fill="#4472C4" fill-rule="nonzero" fill-opacity="1"/><path d="M3346.71 2111.67C3346.71 2117.74 3341.78 2122.67 3335.71 2122.67 3329.63 2122.67 3324.71 2117.74 3324.71 2111.67 3324.71 2105.59 3329.63 2100.67 3335.71 2100.67 3341.78 2100.67 3346.71 2105.59 3346.71 2111.67Z" stroke="#4472C4" stroke-width="3.4375" stroke-linecap="butt" stroke-linejoin="round" stroke-miterlimit="10" stroke-opacity="1" fill="#4472C4" fill-rule="nonzero" fill-opacity="1"/><path d="M3348.71 2107.67C3348.71 2113.74 3343.78 2118.67 3337.71 2118.67 3331.63 2118.67 3326.71 2113.74 3326.71 2107.67 3326.71 2101.59 3331.63 2096.67 3337.71 2096.67 3343.78 2096.67 3348.71 2101.59 3348.71 2107.67Z" stroke="#4472C4" stroke-width="3.4375" stroke-linecap="butt" stroke-linejoin="round" stroke-miterlimit="10" stroke-opacity="1" fill="#4472C4" fill-rule="nonzero" fill-opacity="1"/><path d="M3353.71 2098.67C3353.71 2104.74 3348.78 2109.67 3342.71 2109.67 3336.63 2109.67 3331.71 2104.74 3331.71 2098.67 3331.71 2092.59 3336.63 2087.67 3342.71 2087.67 3348.78 2087.67 3353.71 2092.59 3353.71 2098.67Z" stroke="#4472C4" stroke-width="3.4375" stroke-linecap="butt" stroke-linejoin="round" stroke-miterlimit="10" stroke-opacity="1" fill="#4472C4" fill-rule="nonzero" fill-opacity="1"/><path d="M3363.71 2089.67C3363.71 2095.74 3358.78 2100.67 3352.71 2100.67 3346.63 2100.67 3341.71 2095.74 3341.71 2089.67 3341.71 2083.59 3346.63 2078.67 3352.71 2078.67 3358.78 2078.67 3363.71 2083.59 3363.71 2089.67Z" stroke="#4472C4" stroke-width="3.4375" stroke-linecap="butt" stroke-linejoin="round" stroke-miterlimit="10" stroke-opacity="1" fill="#4472C4" fill-rule="nonzero" fill-opacity="1"/><path d="M3381.71 2061.67C3381.71 2067.74 3376.78 2072.67 3370.71 2072.67 3364.63 2072.67 3359.71 2067.74 3359.71 2061.67 3359.71 2055.59 3364.63 2050.67 3370.71 2050.67 3376.78 2050.67 3381.71 2055.59 3381.71 2061.67Z" stroke="#4472C4" stroke-width="3.4375" stroke-linecap="butt" stroke-linejoin="round" stroke-miterlimit="10" stroke-opacity="1" fill="#4472C4" fill-rule="nonzero" fill-opacity="1"/><path d="M3419.71 2011.67C3419.71 2017.74 3414.78 2022.67 3408.71 2022.67 3402.63 2022.67 3397.71 2017.74 3397.71 2011.67 3397.71 2005.59 3402.63 2000.67 3408.71 2000.67 3414.78 2000.67 3419.71 2005.59 3419.71 2011.67Z" stroke="#4472C4" stroke-width="3.4375" stroke-linecap="butt" stroke-linejoin="round" stroke-miterlimit="10" stroke-opacity="1" fill="#4472C4" fill-rule="nonzero" fill-opacity="1"/><path d="M3495.71 1933.67C3495.71 1939.74 3490.78 1944.67 3484.71 1944.67 3478.63 1944.67 3473.71 1939.74 3473.71 1933.67 3473.71 1927.59 3478.63 1922.67 3484.71 1922.67 3490.78 1922.67 3495.71 1927.59 3495.71 1933.67Z" stroke="#4472C4" stroke-width="3.4375" stroke-linecap="butt" stroke-linejoin="round" stroke-miterlimit="10" stroke-opacity="1" fill="#4472C4" fill-rule="nonzero" fill-opacity="1"/><path d="M3646.71 1782.67C3646.71 1788.74 3641.78 1793.67 3635.71 1793.67 3629.63 1793.67 3624.71 1788.74 3624.71 1782.67 3624.71 1776.59 3629.63 1771.67 3635.71 1771.67 3641.78 1771.67 3646.71 1776.59 3646.71 1782.67Z" stroke="#4472C4" stroke-width="3.4375" stroke-linecap="butt" stroke-linejoin="round" stroke-miterlimit="10" stroke-opacity="1" fill="#4472C4" fill-rule="nonzero" fill-opacity="1"/><path d="M3949.71 1579.67C3949.71 1585.74 3944.78 1590.67 3938.71 1590.67 3932.63 1590.67 3927.71 1585.74 3927.71 1579.67 3927.71 1573.59 3932.63 1568.67 3938.71 1568.67 3944.78 1568.67 3949.71 1573.59 3949.71 1579.67Z" stroke="#4472C4" stroke-width="3.4375" stroke-linecap="butt" stroke-linejoin="round" stroke-miterlimit="10" stroke-opacity="1" fill="#4472C4" fill-rule="nonzero" fill-opacity="1"/><path d="M4554.71 1498.67C4554.71 1504.74 4549.78 1509.67 4543.71 1509.67 4537.63 1509.67 4532.71 1504.74 4532.71 1498.67 4532.71 1492.59 4537.63 1487.67 4543.71 1487.67 4549.78 1487.67 4554.71 1492.59 4554.71 1498.67Z" stroke="#4472C4" stroke-width="3.4375" stroke-linecap="butt" stroke-linejoin="round" stroke-miterlimit="10" stroke-opacity="1" fill="#4472C4" fill-rule="nonzero" fill-opacity="1"/></g><g clip-path="url(#clip7)"><text fill="#595959" fill-opacity="1" font-family="Calibri,Calibri_MSFontService,sans-serif" font-style="normal" font-variant="normal" font-weight="400" font-stretch="normal" font-size="41" text-anchor="start" direction="ltr" writing-mode="lr-tb" unicode-bidi="normal" text-decoration="none" transform="matrix(1 0 0 1 3273.99 2126)">0</text></g><g clip-path="url(#clip8)"><text fill="#595959" fill-opacity="1" font-family="Calibri,Calibri_MSFontService,sans-serif" font-style="normal" font-variant="normal" font-weight="400" font-stretch="normal" font-size="41" text-anchor="start" direction="ltr" writing-mode="lr-tb" unicode-bidi="normal" text-decoration="none" transform="matrix(1 0 0 1 3253.09 1979)">50</text></g><g clip-path="url(#clip9)"><text fill="#595959" fill-opacity="1" font-family="Calibri,Calibri_MSFontService,sans-serif" font-style="normal" font-variant="normal" font-weight="400" font-stretch="normal" font-size="41" text-anchor="start" direction="ltr" writing-mode="lr-tb" unicode-bidi="normal" text-decoration="none" transform="matrix(1 0 0 1 3232.19 1831)">100</text></g><g clip-path="url(#clip10)"><text fill="#595959" fill-opacity="1" font-family="Calibri,Calibri_MSFontService,sans-serif" font-style="normal" font-variant="normal" font-weight="400" font-stretch="normal" font-size="41" text-anchor="start" direction="ltr" writing-mode="lr-tb" unicode-bidi="normal" text-decoration="none" transform="matrix(1 0 0 1 3232.19 1684)">150</text></g><g clip-path="url(#clip11)"><text fill="#595959" fill-opacity="1" font-family="Calibri,Calibri_MSFontService,sans-serif" font-style="normal" font-variant="normal" font-weight="400" font-stretch="normal" font-size="41" text-anchor="start" direction="ltr" writing-mode="lr-tb" unicode-bidi="normal" text-decoration="none" transform="matrix(1 0 0 1 3232.19 1537)">200</text></g><g clip-path="url(#clip12)"><text fill="#595959" fill-opacity="1" font-family="Calibri,Calibri_MSFontService,sans-serif" font-style="normal" font-variant="normal" font-weight="400" font-stretch="normal" font-size="41" text-anchor="start" direction="ltr" writing-mode="lr-tb" unicode-bidi="normal" text-decoration="none" transform="matrix(1 0 0 1 3232.19 1390)">250</text></g><g clip-path="url(#clip13)"><text fill="#595959" fill-opacity="1" font-family="Calibri,Calibri_MSFontService,sans-serif" font-style="normal" font-variant="normal" font-weight="400" font-stretch="normal" font-size="41" text-anchor="start" direction="ltr" writing-mode="lr-tb" unicode-bidi="normal" text-decoration="none" transform="matrix(1 0 0 1 3322.71 2181)">0</text></g><g clip-path="url(#clip14)"><text fill="#595959" fill-opacity="1" font-family="Calibri,Calibri_MSFontService,sans-serif" font-style="normal" font-variant="normal" font-weight="400" font-stretch="normal" font-size="41" text-anchor="start" direction="ltr" writing-mode="lr-tb" unicode-bidi="normal" text-decoration="none" transform="matrix(1 0 0 1 3449.57 2181)">500</text></g><g clip-path="url(#clip15)"><text fill="#595959" fill-opacity="1" font-family="Calibri,Calibri_MSFontService,sans-serif" font-style="normal" font-variant="normal" font-weight="400" font-stretch="normal" font-size="41" text-anchor="start" direction="ltr" writing-mode="lr-tb" unicode-bidi="normal" text-decoration="none" transform="matrix(1 0 0 1 3586.88 2181)">1000</text></g><g clip-path="url(#clip16)"><text fill="#595959" fill-opacity="1" font-family="Calibri,Calibri_MSFontService,sans-serif" font-style="normal" font-variant="normal" font-weight="400" font-stretch="normal" font-size="41" text-anchor="start" direction="ltr" writing-mode="lr-tb" unicode-bidi="normal" text-decoration="none" transform="matrix(1 0 0 1 3734.63 2181)">1500</text></g><g clip-path="url(#clip17)"><text fill="#595959" fill-opacity="1" font-family="Calibri,Calibri_MSFontService,sans-serif" font-style="normal" font-variant="normal" font-weight="400" font-stretch="normal" font-size="41" text-anchor="start" direction="ltr" writing-mode="lr-tb" unicode-bidi="normal" text-decoration="none" transform="matrix(1 0 0 1 3882.39 2181)">2000</text></g><g clip-path="url(#clip18)"><text fill="#595959" fill-opacity="1" font-family="Calibri,Calibri_MSFontService,sans-serif" font-style="normal" font-variant="normal" font-weight="400" font-stretch="normal" font-size="41" text-anchor="start" direction="ltr" writing-mode="lr-tb" unicode-bidi="normal" text-decoration="none" transform="matrix(1 0 0 1 4030.15 2181)">2500</text></g><g clip-path="url(#clip19)"><text fill="#595959" fill-opacity="1" font-family="Calibri,Calibri_MSFontService,sans-serif" font-style="normal" font-variant="normal" font-weight="400" font-stretch="normal" font-size="41" text-anchor="start" direction="ltr" writing-mode="lr-tb" unicode-bidi="normal" text-decoration="none" transform="matrix(1 0 0 1 4177.91 2181)">3000</text></g><g clip-path="url(#clip20)"><text fill="#595959" fill-opacity="1" font-family="Calibri,Calibri_MSFontService,sans-serif" font-style="normal" font-variant="normal" font-weight="400" font-stretch="normal" font-size="41" text-anchor="start" direction="ltr" writing-mode="lr-tb" unicode-bidi="normal" text-decoration="none" transform="matrix(1 0 0 1 4325.67 2181)">3500</text></g><g clip-path="url(#clip21)"><text fill="#595959" fill-opacity="1" font-family="Calibri,Calibri_MSFontService,sans-serif" font-style="normal" font-variant="normal" font-weight="400" font-stretch="normal" font-size="41" text-anchor="start" direction="ltr" writing-mode="lr-tb" unicode-bidi="normal" text-decoration="none" transform="matrix(1 0 0 1 4473.43 2181)">4000</text></g><g clip-path="url(#clip22)"><text fill="#595959" fill-opacity="1" font-family="Calibri,Calibri_MSFontService,sans-serif" font-style="normal" font-variant="normal" font-weight="400" font-stretch="normal" font-size="41" text-anchor="start" direction="ltr" writing-mode="lr-tb" unicode-bidi="normal" text-decoration="none" transform="matrix(1 0 0 1 4621.19 2181)">4500</text></g><g clip-path="url(#clip23)"><text fill="#595959" fill-opacity="1" font-family="Calibri,Calibri_MSFontService,sans-serif" font-style="normal" font-variant="normal" font-weight="400" font-stretch="normal" font-size="46" text-anchor="start" direction="ltr" writing-mode="lr-tb" unicode-bidi="normal" text-decoration="none" transform="matrix(6.12323e-17 -1 1 6.12323e-17 3206.5 1951)">Performance (ns/day)</text></g><g clip-path="url(#clip24)"><text fill="#595959" fill-opacity="1" font-family="Calibri,Calibri_MSFontService,sans-serif" font-style="normal" font-variant="normal" font-weight="400" font-stretch="normal" font-size="46" text-anchor="start" direction="ltr" writing-mode="lr-tb" unicode-bidi="normal" text-decoration="none" transform="matrix(1 0 0 1 3950.36 2250)">CPUs</text></g><rect x="3105.5" y="1329.5" width="1650" height="990" stroke="#D9D9D9" stroke-width="3.4375" stroke-linecap="butt" stroke-linejoin="round" stroke-miterlimit="10" stroke-opacity="1" fill="none"/></g></svg>