<svg width="1659" height="999" xmlns="http://www.w3.org/2000/svg" xmlns:xlink="http://www.w3.org/1999/xlink" overflow="hidden"><defs><clipPath id="clip0"><rect x="3153" y="2548" width="1659" height="999"/></clipPath><clipPath id="clip1"><rect x="3157" y="2552" width="1650" height="990"/></clipPath><clipPath id="clip2"><rect x="3157" y="2552" width="1650" height="990"/></clipPath><clipPath id="clip3"><rect x="3157" y="2552" width="1650" height="990"/></clipPath><clipPath id="clip4"><rect x="3157" y="2552" width="1650" height="990"/></clipPath><clipPath id="clip5"><rect x="3385" y="2778" width="1334" height="564"/></clipPath><clipPath id="clip6"><rect x="3157" y="2552" width="1650" height="990"/></clipPath><clipPath id="clip7"><rect x="3385" y="2778" width="1334" height="564"/></clipPath><clipPath id="clip8"><rect x="3157" y="2552" width="1650" height="990"/></clipPath><clipPath id="clip9"><rect x="3385" y="2778" width="1334" height="564"/></clipPath><clipPath id="clip10"><rect x="3157" y="2552" width="1650" height="990"/></clipPath><clipPath id="clip11"><rect x="3385" y="2778" width="1334" height="564"/></clipPath><clipPath id="clip12"><rect x="3157" y="2552" width="1650" height="990"/></clipPath><clipPath id="clip13"><rect x="3157" y="2552" width="1650" height="990"/></clipPath><clipPath id="clip14"><rect x="3157" y="2552" width="1650" height="990"/></clipPath><clipPath id="clip15"><rect x="3157" y="2552" width="1650" height="990"/></clipPath><clipPath id="clip16"><rect x="3157" y="2552" width="1650" height="990"/></clipPath><clipPath id="clip17"><rect x="3157" y="2552" width="1650" height="990"/></clipPath><clipPath id="clip18"><rect x="3157" y="2552" width="1650" height="990"/></clipPath><clipPath id="clip19"><rect x="3157" y="2552" width="1650" height="990"/></clipPath><clipPath id="clip20"><rect x="3157" y="2552" width="1650" height="990"/></clipPath><clipPath id="clip21"><rect x="3157" y="2552" width="1650" height="990"/></clipPath><clipPath id="clip22"><rect x="3157" y="2552" width="1650" height="990"/></clipPath><clipPath id="clip23"><rect x="3157" y="2552" width="1650" height="990"/></clipPath><clipPath id="clip24"><rect x="3157" y="2552" width="1650" height="990"/></clipPath><clipPath id="clip25"><rect x="3157" y="2552" width="1650" height="990"/></clipPath><clipPath id="clip26"><rect x="3157" y="2552" width="1650" height="990"/></clipPath><clipPath id="clip27"><rect x="3157" y="2552" width="1650" height="990"/></clipPath><clipPath id="clip28"><rect x="3157" y="2552" width="1650" height="990"/></clipPath><clipPath id="clip29"><rect x="3157" y="2552" width="1650" height="990"/></clipPath><clipPath id="clip30"><rect x="3157" y="2552" width="1650" height="990"/></clipPath><clipPath id="clip31"><rect x="3157" y="2552" width="1650" height="990"/></clipPath><clipPath id="clip32"><rect x="3157" y="2552" width="1650" height="990"/></clipPath><clipPath id="clip33"><rect x="3157" y="2552" width="1650" height="990"/></clipPath><clipPath id="clip34"><rect x="3157" y="2552" width="1650" height="990"/></clipPath><clipPath id="clip35"><rect x="3157" y="2552" width="1650" height="990"/></clipPath><clipPath id="clip36"><rect x="3157" y="2552" width="1650" height="990"/></clipPath><clipPath id="clip37"><rect x="3157" y="2552" width="1650" height="990"/></clipPath><clipPath id="clip38"><rect x="3157" y="2552" width="1650" height="990"/></clipPath><clipPath id="clip39"><rect x="3157" y="2552" width="1650" height="990"/></clipPath><clipPath id="clip40"><rect x="3157" y="2552" width="1650" height="990"/></clipPath><clipPath id="clip41"><rect x="3157" y="2552" width="1650" height="990"/></clipPath><clipPath id="clip42"><rect x="3157" y="2552" width="1650" height="990"/></clipPath><clipPath id="clip43"><rect x="3157" y="2552" width="1650" height="990"/></clipPath><clipPath id="clip44"><rect x="3157" y="2552" width="1650" height="990"/></clipPath></defs><g clip-path="url(#clip0)" transform="translate(-3153 -2548)"><rect x="3158" y="2553" width="1650" height="990" fill="#FFFFFF" fill-opacity="1"/><g clip-path="url(#clip1)"><path d="M3385.5 3259.61 4715.5 3259.61M3385.5 3179.6 4715.5 3179.6M3385.5 3098.6 4715.5 3098.6M3385.5 3018.6 4715.5 3018.6M3385.5 2938.6 4715.5 2938.6M3385.5 2858.59 4715.5 2858.59M3385.5 2778.5 4715.5 2778.5" stroke="#D9D9D9" stroke-width="3.4375" stroke-linecap="butt" stroke-linejoin="round" stroke-miterlimit="10" stroke-opacity="1" fill="none" fill-rule="nonzero"/></g><g clip-path="url(#clip2)"><path d="M3533.62 2778.5 3533.62 3339.5M3681.62 2778.5 3681.62 3339.5M3829.63 2778.5 3829.63 3339.5M3976.63 2778.5 3976.63 3339.5M4124.64 2778.5 4124.64 3339.5M4272.64 2778.5 4272.64 3339.5M4420.65 2778.5 4420.65 3339.5M4567.65 2778.5 4567.65 3339.5M4715.5 2778.5 4715.5 3339.5" stroke="#D9D9D9" stroke-width="3.4375" stroke-linecap="butt" stroke-linejoin="round" stroke-miterlimit="10" stroke-opacity="1" fill="none" fill-rule="nonzero"/></g><g clip-path="url(#clip3)"><path d="M0 0 0.000360892 561" stroke="#BFBFBF" stroke-width="3.4375" stroke-linecap="butt" stroke-linejoin="round" stroke-miterlimit="10" stroke-opacity="1" fill="none" fill-rule="evenodd" transform="matrix(1 0 0 -1 3385.5 3339.5)"/></g><g clip-path="url(#clip4)"><path d="M3385.5 3339.5 4715.5 3339.5" stroke="#BFBFBF" stroke-width="3.4375" stroke-linecap="butt" stroke-linejoin="round" stroke-miterlimit="10" stroke-opacity="1" fill="none" fill-rule="evenodd"/></g><g clip-path="url(#clip5)"><path d="M3386.5 3339.5 3386.61 3338.61 3388.61 3336.61 3390.61 3334.61 3395.61 3330.61 3404.61 3324.61 3423.61 3309.61 3461.61 3282.61 3537.62 3240.61 3688.62 3158.6 3990.63 3047.6 4596.5 3003.5" stroke="#4472C4" stroke-width="6.875" stroke-linecap="round" stroke-linejoin="round" stroke-miterlimit="10" stroke-opacity="1" fill="none" fill-rule="nonzero"/></g><g clip-path="url(#clip6)"><path d="M3397.42 3339.42C3397.42 3345.49 3392.49 3350.42 3386.42 3350.42 3380.34 3350.42 3375.42 3345.49 3375.42 3339.42 3375.42 3333.34 3380.34 3328.42 3386.42 3328.42 3392.49 3328.42 3397.42 3333.34 3397.42 3339.42Z" stroke="#4472C4" stroke-width="3.4375" stroke-linecap="butt" stroke-linejoin="round" stroke-miterlimit="10" stroke-opacity="1" fill="#4472C4" fill-rule="nonzero" fill-opacity="1"/><path d="M3397.42 3338.42C3397.42 3344.49 3392.49 3349.42 3386.42 3349.42 3380.34 3349.42 3375.42 3344.49 3375.42 3338.42 3375.42 3332.34 3380.34 3327.42 3386.42 3327.42 3392.49 3327.42 3397.42 3332.34 3397.42 3338.42Z" stroke="#4472C4" stroke-width="3.4375" stroke-linecap="butt" stroke-linejoin="round" stroke-miterlimit="10" stroke-opacity="1" fill="#4472C4" fill-rule="nonzero" fill-opacity="1"/><path d="M3398.42 3338.42C3398.42 3344.49 3393.49 3349.42 3387.42 3349.42 3381.34 3349.42 3376.42 3344.49 3376.42 3338.42 3376.42 3332.34 3381.34 3327.42 3387.42 3327.42 3393.49 3327.42 3398.42 3332.34 3398.42 3338.42Z" stroke="#4472C4" stroke-width="3.4375" stroke-linecap="butt" stroke-linejoin="round" stroke-miterlimit="10" stroke-opacity="1" fill="#4472C4" fill-rule="nonzero" fill-opacity="1"/><path d="M3399.42 3336.42C3399.42 3342.49 3394.49 3347.42 3388.42 3347.42 3382.34 3347.42 3377.42 3342.49 3377.42 3336.42 3377.42 3330.34 3382.34 3325.42 3388.42 3325.42 3394.49 3325.42 3399.42 3330.34 3399.42 3336.42Z" stroke="#4472C4" stroke-width="3.4375" stroke-linecap="butt" stroke-linejoin="round" stroke-miterlimit="10" stroke-opacity="1" fill="#4472C4" fill-rule="nonzero" fill-opacity="1"/><path d="M3401.42 3334.42C3401.42 3340.49 3396.49 3345.42 3390.42 3345.42 3384.34 3345.42 3379.42 3340.49 3379.42 3334.42 3379.42 3328.34 3384.34 3323.42 3390.42 3323.42 3396.49 3323.42 3401.42 3328.34 3401.42 3334.42Z" stroke="#4472C4" stroke-width="3.4375" stroke-linecap="butt" stroke-linejoin="round" stroke-miterlimit="10" stroke-opacity="1" fill="#4472C4" fill-rule="nonzero" fill-opacity="1"/><path d="M3406.42 3330.42C3406.42 3336.49 3401.49 3341.42 3395.42 3341.42 3389.34 3341.42 3384.42 3336.49 3384.42 3330.42 3384.42 3324.34 3389.34 3319.42 3395.42 3319.42 3401.49 3319.42 3406.42 3324.34 3406.42 3330.42Z" stroke="#4472C4" stroke-width="3.4375" stroke-linecap="butt" stroke-linejoin="round" stroke-miterlimit="10" stroke-opacity="1" fill="#4472C4" fill-rule="nonzero" fill-opacity="1"/><path d="M3415.42 3325.42C3415.42 3331.49 3410.49 3336.42 3404.42 3336.42 3398.34 3336.42 3393.42 3331.49 3393.42 3325.42 3393.42 3319.34 3398.34 3314.42 3404.42 3314.42 3410.49 3314.42 3415.42 3319.34 3415.42 3325.42Z" stroke="#4472C4" stroke-width="3.4375" stroke-linecap="butt" stroke-linejoin="round" stroke-miterlimit="10" stroke-opacity="1" fill="#4472C4" fill-rule="nonzero" fill-opacity="1"/><path d="M3434.42 3309.42C3434.42 3315.49 3429.49 3320.42 3423.42 3320.42 3417.34 3320.42 3412.42 3315.49 3412.42 3309.42 3412.42 3303.34 3417.34 3298.42 3423.42 3298.42 3429.49 3298.42 3434.42 3303.34 3434.42 3309.42Z" stroke="#4472C4" stroke-width="3.4375" stroke-linecap="butt" stroke-linejoin="round" stroke-miterlimit="10" stroke-opacity="1" fill="#4472C4" fill-rule="nonzero" fill-opacity="1"/><path d="M3472.42 3282.42C3472.42 3288.49 3467.49 3293.42 3461.42 3293.42 3455.34 3293.42 3450.42 3288.49 3450.42 3282.42 3450.42 3276.34 3455.34 3271.42 3461.42 3271.42 3467.49 3271.42 3472.42 3276.34 3472.42 3282.42Z" stroke="#4472C4" stroke-width="3.4375" stroke-linecap="butt" stroke-linejoin="round" stroke-miterlimit="10" stroke-opacity="1" fill="#4472C4" fill-rule="nonzero" fill-opacity="1"/><path d="M3548.42 3240.42C3548.42 3246.49 3543.49 3251.42 3537.42 3251.42 3531.34 3251.42 3526.42 3246.49 3526.42 3240.42 3526.42 3234.34 3531.34 3229.42 3537.42 3229.42 3543.49 3229.42 3548.42 3234.34 3548.42 3240.42Z" stroke="#4472C4" stroke-width="3.4375" stroke-linecap="butt" stroke-linejoin="round" stroke-miterlimit="10" stroke-opacity="1" fill="#4472C4" fill-rule="nonzero" fill-opacity="1"/><path d="M3699.42 3158.42C3699.42 3164.49 3694.49 3169.42 3688.42 3169.42 3682.34 3169.42 3677.42 3164.49 3677.42 3158.42 3677.42 3152.34 3682.34 3147.42 3688.42 3147.42 3694.49 3147.42 3699.42 3152.34 3699.42 3158.42Z" stroke="#4472C4" stroke-width="3.4375" stroke-linecap="butt" stroke-linejoin="round" stroke-miterlimit="10" stroke-opacity="1" fill="#4472C4" fill-rule="nonzero" fill-opacity="1"/><path d="M4002.42 3047.42C4002.42 3053.49 3997.49 3058.42 3991.42 3058.42 3985.34 3058.42 3980.42 3053.49 3980.42 3047.42 3980.42 3041.34 3985.34 3036.42 3991.42 3036.42 3997.49 3036.42 4002.42 3041.34 4002.42 3047.42Z" stroke="#4472C4" stroke-width="3.4375" stroke-linecap="butt" stroke-linejoin="round" stroke-miterlimit="10" stroke-opacity="1" fill="#4472C4" fill-rule="nonzero" fill-opacity="1"/><path d="M4607.42 3003.42C4607.42 3009.49 4602.49 3014.42 4596.42 3014.42 4590.34 3014.42 4585.42 3009.49 4585.42 3003.42 4585.42 2997.34 4590.34 2992.42 4596.42 2992.42 4602.49 2992.42 4607.42 2997.34 4607.42 3003.42Z" stroke="#4472C4" stroke-width="3.4375" stroke-linecap="butt" stroke-linejoin="round" stroke-miterlimit="10" stroke-opacity="1" fill="#4472C4" fill-rule="nonzero" fill-opacity="1"/></g><g clip-path="url(#clip7)"><path d="M3383.09 3339.07 3383.2 3338.18 3383.17 3337.61C3383.17 3336.31 3383.91 3335.12 3385.07 3334.53L3387.07 3333.53 3385.75 3334.7 3387.75 3331.7C3387.95 3331.41 3388.19 3331.15 3388.46 3330.93L3393.46 3326.93 3399.1 3323.15C3400.68 3322.1 3402.81 3322.53 3403.87 3324.11 3404.92 3325.69 3404.49 3327.82 3402.91 3328.87L3397.76 3332.29 3392.76 3336.29 3393.47 3335.52 3391.47 3338.52C3391.14 3339.01 3390.68 3339.42 3390.15 3339.68L3388.15 3340.68 3390.05 3337.61 3390.02 3339.04 3389.91 3339.93C3389.68 3341.81 3387.96 3343.15 3386.07 3342.91 3384.19 3342.68 3382.85 3340.96 3383.09 3339.07ZM3426.18 3313.64 3446.46 3309.9C3448.33 3309.56 3450.12 3310.8 3450.46 3312.66 3450.81 3314.53 3449.57 3316.32 3447.71 3316.67L3427.42 3320.4C3425.55 3320.75 3423.76 3319.51 3423.42 3317.64 3423.07 3315.78 3424.31 3313.99 3426.18 3313.64ZM3474.14 3306.51 3494.74 3305.42C3496.63 3305.32 3498.25 3306.78 3498.35 3308.68 3498.45 3310.57 3496.99 3312.19 3495.1 3312.29L3474.5 3313.37C3472.61 3313.47 3470.99 3312.02 3470.89 3310.12 3470.79 3308.22 3472.24 3306.61 3474.14 3306.51ZM3522.2 3303.98 3537.44 3303.18 3542.91 3303.07C3544.81 3303.03 3546.38 3304.54 3546.42 3306.43 3546.46 3308.33 3544.95 3309.9 3543.05 3309.94L3537.8 3310.04 3522.56 3310.84C3520.66 3310.94 3519.05 3309.49 3518.95 3307.59 3518.85 3305.7 3520.3 3304.08 3522.2 3303.98ZM3570.41 3302.52 3591.03 3302.11C3592.93 3302.07 3594.5 3303.58 3594.53 3305.48 3594.57 3307.38 3593.06 3308.95 3591.17 3308.98L3570.54 3309.39C3568.65 3309.43 3567.08 3307.92 3567.04 3306.02 3567 3304.13 3568.51 3302.56 3570.41 3302.52ZM3618.52 3301.56 3639.14 3301.15C3641.04 3301.12 3642.61 3302.62 3642.65 3304.52 3642.69 3306.42 3641.18 3307.99 3639.28 3308.03L3618.66 3308.44C3616.76 3308.47 3615.19 3306.97 3615.16 3305.07 3615.12 3303.17 3616.63 3301.6 3618.52 3301.56ZM3666.64 3300.61 3687.26 3300.2C3689.16 3300.16 3690.73 3301.67 3690.77 3303.57 3690.8 3305.46 3689.29 3307.03 3687.4 3307.07L3666.78 3307.48C3664.88 3307.52 3663.31 3306.01 3663.27 3304.11 3663.23 3302.21 3664.74 3300.64 3666.64 3300.61ZM3714.8 3300 3735.43 3299.86C3737.33 3299.85 3738.88 3301.38 3738.89 3303.28 3738.9 3305.17 3737.37 3306.72 3735.48 3306.74L3714.85 3306.87C3712.95 3306.89 3711.4 3305.36 3711.39 3303.46 3711.38 3301.56 3712.91 3300.01 3714.8 3300ZM3762.93 3299.68 3783.55 3299.54C3785.45 3299.53 3787 3301.06 3787.01 3302.96 3787.03 3304.86 3785.5 3306.4 3783.6 3306.42L3762.97 3306.55C3761.08 3306.57 3759.53 3305.04 3759.51 3303.14 3759.5 3301.24 3761.03 3299.69 3762.93 3299.68ZM3811.05 3299.36 3831.68 3299.22C3833.58 3299.21 3835.12 3300.74 3835.14 3302.64 3835.15 3304.54 3833.62 3306.09 3831.72 3306.1L3811.1 3306.23C3809.2 3306.25 3807.65 3304.72 3807.64 3302.82 3807.63 3300.92 3809.15 3299.37 3811.05 3299.36ZM3859.18 3299.04 3879.8 3298.9C3881.7 3298.89 3883.25 3300.42 3883.26 3302.32 3883.27 3304.22 3881.75 3305.77 3879.85 3305.78L3859.22 3305.92C3857.32 3305.93 3855.77 3304.4 3855.76 3302.5 3855.75 3300.6 3857.28 3299.05 3859.18 3299.04ZM3907.3 3298.72 3927.93 3298.59C3929.82 3298.57 3931.37 3300.1 3931.39 3302 3931.4 3303.9 3929.87 3305.45 3927.97 3305.46L3907.35 3305.6C3905.45 3305.61 3903.9 3304.08 3903.89 3302.18 3903.87 3300.28 3905.4 3298.74 3907.3 3298.72ZM3955.42 3298.4 3976.05 3298.27C3977.95 3298.25 3979.5 3299.78 3979.51 3301.68 3979.52 3303.58 3977.99 3305.13 3976.09 3305.14L3955.47 3305.28C3953.57 3305.29 3952.02 3303.76 3952.01 3301.86 3952 3299.97 3953.53 3298.42 3955.42 3298.4ZM4003.57 3298.15 4024.19 3298.11C4026.09 3298.11 4027.63 3299.64 4027.63 3301.54 4027.64 3303.44 4026.1 3304.98 4024.2 3304.98L4003.58 3305.02C4001.68 3305.03 4000.14 3303.49 4000.13 3301.59 4000.13 3299.69 4001.67 3298.15 4003.57 3298.15ZM4051.69 3298.06 4072.32 3298.02C4074.21 3298.02 4075.76 3299.55 4075.76 3301.45 4075.76 3303.35 4074.23 3304.89 4072.33 3304.9L4051.7 3304.93C4049.8 3304.94 4048.26 3303.4 4048.26 3301.5 4048.26 3299.6 4049.79 3298.06 4051.69 3298.06ZM4099.82 3297.97 4120.44 3297.93C4122.34 3297.93 4123.88 3299.47 4123.88 3301.36 4123.89 3303.26 4122.35 3304.8 4120.45 3304.81L4099.83 3304.85C4097.93 3304.85 4096.39 3303.31 4096.38 3301.41 4096.38 3299.52 4097.92 3297.97 4099.82 3297.97ZM4147.94 3297.88 4168.56 3297.85C4170.46 3297.84 4172.01 3299.38 4172.01 3301.28 4172.01 3303.18 4170.48 3304.72 4168.58 3304.72L4147.95 3304.76C4146.05 3304.76 4144.51 3303.23 4144.51 3301.33 4144.51 3299.43 4146.04 3297.89 4147.94 3297.88ZM4196.06 3297.79 4216.69 3297.76C4218.59 3297.75 4220.13 3299.29 4220.13 3301.19 4220.14 3303.09 4218.6 3304.63 4216.7 3304.63L4196.08 3304.67C4194.18 3304.67 4192.64 3303.14 4192.63 3301.24 4192.63 3299.34 4194.17 3297.8 4196.06 3297.79ZM4244.19 3297.71 4264.81 3297.67C4266.71 3297.67 4268.26 3299.2 4268.26 3301.1 4268.26 3303 4266.73 3304.54 4264.83 3304.54L4244.2 3304.58C4242.3 3304.59 4240.76 3303.05 4240.76 3301.15 4240.76 3299.25 4242.29 3297.71 4244.19 3297.71ZM4292.31 3297.62 4312.94 3297.58C4314.84 3297.58 4316.38 3299.11 4316.38 3301.01 4316.39 3302.91 4314.85 3304.45 4312.95 3304.46L4292.33 3304.49C4290.43 3304.5 4288.89 3302.96 4288.88 3301.06 4288.88 3299.16 4290.42 3297.62 4292.31 3297.62ZM4340.44 3297.53 4361.06 3297.49C4362.96 3297.49 4364.5 3299.03 4364.51 3300.92 4364.51 3302.82 4362.98 3304.36 4361.08 3304.37L4340.45 3304.41C4338.55 3304.41 4337.01 3302.87 4337.01 3300.97 4337.01 3299.08 4338.54 3297.53 4340.44 3297.53ZM4388.56 3297.44 4409.19 3297.41C4411.09 3297.4 4412.63 3298.94 4412.63 3300.84 4412.64 3302.73 4411.1 3304.28 4409.2 3304.28L4388.58 3304.32C4386.68 3304.32 4385.14 3302.78 4385.13 3300.89 4385.13 3298.99 4386.67 3297.45 4388.56 3297.44ZM4436.69 3297.35 4457.31 3297.32C4459.21 3297.31 4460.75 3298.85 4460.76 3300.75 4460.76 3302.65 4459.23 3304.19 4457.33 3304.19L4436.7 3304.23C4434.8 3304.23 4433.26 3302.7 4433.26 3300.8 4433.25 3298.9 4434.79 3297.36 4436.69 3297.35ZM4484.81 3297.27 4505.44 3297.23C4507.34 3297.23 4508.88 3298.76 4508.88 3300.66 4508.89 3302.56 4507.35 3304.1 4505.45 3304.1L4484.83 3304.14C4482.93 3304.15 4481.39 3302.61 4481.38 3300.71 4481.38 3298.81 4482.92 3297.27 4484.81 3297.27ZM4532.94 3297.18 4553.56 3297.14C4555.46 3297.14 4557 3298.67 4557.01 3300.57 4557.01 3302.47 4555.48 3304.01 4553.58 3304.02L4532.95 3304.05C4531.05 3304.06 4529.51 3302.52 4529.51 3300.62 4529.5 3298.72 4531.04 3297.18 4532.94 3297.18ZM4581.06 3297.09 4596.49 3297.06C4598.39 3297.06 4599.93 3298.59 4599.94 3300.49 4599.94 3302.39 4598.41 3303.93 4596.51 3303.94L4581.08 3303.97C4579.18 3303.97 4577.64 3302.43 4577.63 3300.53 4577.63 3298.64 4579.17 3297.09 4581.06 3297.09Z" fill="#ED7D31" fill-rule="nonzero" fill-opacity="1"/></g><g clip-path="url(#clip8)"><path d="M3397.42 3339.42C3397.42 3345.49 3392.49 3350.42 3386.42 3350.42 3380.34 3350.42 3375.42 3345.49 3375.42 3339.42 3375.42 3333.34 3380.34 3328.42 3386.42 3328.42 3392.49 3328.42 3397.42 3333.34 3397.42 3339.42Z" stroke="#ED7D31" stroke-width="3.4375" stroke-linecap="butt" stroke-linejoin="round" stroke-miterlimit="10" stroke-opacity="1" fill="#ED7D31" fill-rule="nonzero" fill-opacity="1"/><path d="M3397.42 3338.42C3397.42 3344.49 3392.49 3349.42 3386.42 3349.42 3380.34 3349.42 3375.42 3344.49 3375.42 3338.42 3375.42 3332.34 3380.34 3327.42 3386.42 3327.42 3392.49 3327.42 3397.42 3332.34 3397.42 3338.42Z" stroke="#ED7D31" stroke-width="3.4375" stroke-linecap="butt" stroke-linejoin="round" stroke-miterlimit="10" stroke-opacity="1" fill="#ED7D31" fill-rule="nonzero" fill-opacity="1"/><path d="M3398.42 3337.42C3398.42 3343.49 3393.49 3348.42 3387.42 3348.42 3381.34 3348.42 3376.42 3343.49 3376.42 3337.42 3376.42 3331.34 3381.34 3326.42 3387.42 3326.42 3393.49 3326.42 3398.42 3331.34 3398.42 3337.42Z" stroke="#ED7D31" stroke-width="3.4375" stroke-linecap="butt" stroke-linejoin="round" stroke-miterlimit="10" stroke-opacity="1" fill="#ED7D31" fill-rule="nonzero" fill-opacity="1"/><path d="M3399.42 3336.42C3399.42 3342.49 3394.49 3347.42 3388.42 3347.42 3382.34 3347.42 3377.42 3342.49 3377.42 3336.42 3377.42 3330.34 3382.34 3325.42 3388.42 3325.42 3394.49 3325.42 3399.42 3330.34 3399.42 3336.42Z" stroke="#ED7D31" stroke-width="3.4375" stroke-linecap="butt" stroke-linejoin="round" stroke-miterlimit="10" stroke-opacity="1" fill="#ED7D31" fill-rule="nonzero" fill-opacity="1"/><path d="M3401.42 3333.42C3401.42 3339.49 3396.49 3344.42 3390.42 3344.42 3384.34 3344.42 3379.42 3339.49 3379.42 3333.42 3379.42 3327.34 3384.34 3322.42 3390.42 3322.42 3396.49 3322.42 3401.42 3327.34 3401.42 3333.42Z" stroke="#ED7D31" stroke-width="3.4375" stroke-linecap="butt" stroke-linejoin="round" stroke-miterlimit="10" stroke-opacity="1" fill="#ED7D31" fill-rule="nonzero" fill-opacity="1"/><path d="M3406.42 3329.42C3406.42 3335.49 3401.49 3340.42 3395.42 3340.42 3389.34 3340.42 3384.42 3335.49 3384.42 3329.42 3384.42 3323.34 3389.34 3318.42 3395.42 3318.42 3401.49 3318.42 3406.42 3323.34 3406.42 3329.42Z" stroke="#ED7D31" stroke-width="3.4375" stroke-linecap="butt" stroke-linejoin="round" stroke-miterlimit="10" stroke-opacity="1" fill="#ED7D31" fill-rule="nonzero" fill-opacity="1"/><path d="M3415.42 3323.42C3415.42 3329.49 3410.49 3334.42 3404.42 3334.42 3398.34 3334.42 3393.42 3329.49 3393.42 3323.42 3393.42 3317.34 3398.34 3312.42 3404.42 3312.42 3410.49 3312.42 3415.42 3317.34 3415.42 3323.42Z" stroke="#ED7D31" stroke-width="3.4375" stroke-linecap="butt" stroke-linejoin="round" stroke-miterlimit="10" stroke-opacity="1" fill="#ED7D31" fill-rule="nonzero" fill-opacity="1"/><path d="M3434.42 3317.42C3434.42 3323.49 3429.49 3328.42 3423.42 3328.42 3417.34 3328.42 3412.42 3323.49 3412.42 3317.42 3412.42 3311.34 3417.34 3306.42 3423.42 3306.42 3429.49 3306.42 3434.42 3311.34 3434.42 3317.42Z" stroke="#ED7D31" stroke-width="3.4375" stroke-linecap="butt" stroke-linejoin="round" stroke-miterlimit="10" stroke-opacity="1" fill="#ED7D31" fill-rule="nonzero" fill-opacity="1"/><path d="M3472.42 3310.42C3472.42 3316.49 3467.49 3321.42 3461.42 3321.42 3455.34 3321.42 3450.42 3316.49 3450.42 3310.42 3450.42 3304.34 3455.34 3299.42 3461.42 3299.42 3467.49 3299.42 3472.42 3304.34 3472.42 3310.42Z" stroke="#ED7D31" stroke-width="3.4375" stroke-linecap="butt" stroke-linejoin="round" stroke-miterlimit="10" stroke-opacity="1" fill="#ED7D31" fill-rule="nonzero" fill-opacity="1"/><path d="M3548.42 3306.42C3548.42 3312.49 3543.49 3317.42 3537.42 3317.42 3531.34 3317.42 3526.42 3312.49 3526.42 3306.42 3526.42 3300.34 3531.34 3295.42 3537.42 3295.42 3543.49 3295.42 3548.42 3300.34 3548.42 3306.42Z" stroke="#ED7D31" stroke-width="3.4375" stroke-linecap="butt" stroke-linejoin="round" stroke-miterlimit="10" stroke-opacity="1" fill="#ED7D31" fill-rule="nonzero" fill-opacity="1"/><path d="M3699.42 3303.42C3699.42 3309.49 3694.49 3314.42 3688.42 3314.42 3682.34 3314.42 3677.42 3309.49 3677.42 3303.42 3677.42 3297.34 3682.34 3292.42 3688.42 3292.42 3694.49 3292.42 3699.42 3297.34 3699.42 3303.42Z" stroke="#ED7D31" stroke-width="3.4375" stroke-linecap="butt" stroke-linejoin="round" stroke-miterlimit="10" stroke-opacity="1" fill="#ED7D31" fill-rule="nonzero" fill-opacity="1"/><path d="M4002.42 3301.42C4002.42 3307.49 3997.49 3312.42 3991.42 3312.42 3985.34 3312.42 3980.42 3307.49 3980.42 3301.42 3980.42 3295.34 3985.34 3290.42 3991.42 3290.42 3997.49 3290.42 4002.42 3295.34 4002.42 3301.42Z" stroke="#ED7D31" stroke-width="3.4375" stroke-linecap="butt" stroke-linejoin="round" stroke-miterlimit="10" stroke-opacity="1" fill="#ED7D31" fill-rule="nonzero" fill-opacity="1"/><path d="M4607.42 3300.42C4607.42 3306.49 4602.49 3311.42 4596.42 3311.42 4590.34 3311.42 4585.42 3306.49 4585.42 3300.42 4585.42 3294.34 4590.34 3289.42 4596.42 3289.42 4602.49 3289.42 4607.42 3294.34 4607.42 3300.42Z" stroke="#ED7D31" stroke-width="3.4375" stroke-linecap="butt" stroke-linejoin="round" stroke-miterlimit="10" stroke-opacity="1" fill="#ED7D31" fill-rule="nonzero" fill-opacity="1"/></g><g clip-path="url(#clip9)"><path d="M3383.09 3339.07 3383.2 3338.18 3383.17 3337.61C3383.17 3336.31 3383.91 3335.12 3385.07 3334.53L3387.07 3333.53 3385.75 3334.7 3387.75 3331.7 3392.97 3325.41 3395.91 3321.49C3397.05 3319.97 3399.2 3319.66 3400.72 3320.8 3402.24 3321.94 3402.55 3324.09 3401.41 3325.61L3398.25 3329.81 3393.47 3335.52 3391.47 3338.52C3391.14 3339.01 3390.68 3339.42 3390.15 3339.68L3388.15 3340.68 3390.05 3337.61 3390.02 3339.04 3389.91 3339.93C3389.68 3341.81 3387.96 3343.15 3386.07 3342.91 3384.19 3342.68 3382.85 3340.96 3383.09 3339.07ZM3413.85 3300.27 3421.06 3292.3 3428.42 3285.32C3429.8 3284.01 3431.97 3284.07 3433.28 3285.45 3434.59 3286.83 3434.53 3289 3433.15 3290.31L3426.16 3296.91 3418.95 3304.88C3417.68 3306.29 3415.5 3306.4 3414.1 3305.13 3412.69 3303.85 3412.58 3301.68 3413.85 3300.27ZM3448.38 3266.41 3459.25 3256.11C3459.37 3255.99 3459.51 3255.89 3459.65 3255.79L3464.29 3252.55C3465.85 3251.47 3467.99 3251.85 3469.07 3253.4 3470.16 3254.96 3469.78 3257.1 3468.22 3258.19L3463.58 3261.43 3463.98 3261.1 3453.11 3271.4C3451.73 3272.7 3449.56 3272.64 3448.25 3271.26 3446.95 3269.89 3447.01 3267.71 3448.38 3266.41ZM3486.84 3236.82 3503.76 3225.02C3505.32 3223.94 3507.46 3224.32 3508.55 3225.88 3509.63 3227.43 3509.25 3229.58 3507.7 3230.66L3490.78 3242.46C3489.22 3243.55 3487.08 3243.16 3485.99 3241.61 3484.91 3240.05 3485.29 3237.91 3486.84 3236.82ZM3526.32 3209.29 3535.65 3202.79C3535.84 3202.66 3536.03 3202.55 3536.24 3202.46L3544.71 3198.75C3546.45 3197.99 3548.48 3198.78 3549.24 3200.52 3550 3202.26 3549.21 3204.29 3547.47 3205.05L3538.99 3208.76 3539.58 3208.42 3530.25 3214.93C3528.69 3216.02 3526.55 3215.64 3525.47 3214.08 3524.38 3212.52 3524.76 3210.38 3526.32 3209.29ZM3569.91 3187.74 3588.81 3179.48C3590.55 3178.72 3592.58 3179.51 3593.34 3181.25 3594.1 3182.99 3593.3 3185.02 3591.56 3185.78L3572.67 3194.04C3570.93 3194.8 3568.9 3194 3568.14 3192.26 3567.38 3190.52 3568.17 3188.5 3569.91 3187.74ZM3614.01 3168.46 3632.91 3160.2C3634.65 3159.44 3636.67 3160.24 3637.43 3161.98 3638.2 3163.72 3637.4 3165.74 3635.66 3166.5L3616.76 3174.76C3615.02 3175.52 3613 3174.73 3612.24 3172.99 3611.48 3171.25 3612.27 3169.22 3614.01 3168.46ZM3658.11 3149.19 3677.01 3140.93C3678.74 3140.17 3680.77 3140.96 3681.53 3142.7 3682.29 3144.44 3681.5 3146.47 3679.76 3147.23L3660.86 3155.49C3659.12 3156.25 3657.09 3155.46 3656.33 3153.72 3655.57 3151.98 3656.37 3149.95 3658.11 3149.19ZM3703.86 3132.81 3724.02 3128.47C3725.88 3128.07 3727.71 3129.25 3728.1 3131.1 3728.5 3132.96 3727.32 3134.79 3725.47 3135.19L3705.3 3139.53C3703.45 3139.93 3701.62 3138.75 3701.22 3136.89 3700.82 3135.04 3702 3133.21 3703.86 3132.81ZM3750.91 3122.68 3771.07 3118.34C3772.92 3117.94 3774.75 3119.12 3775.15 3120.98 3775.55 3122.83 3774.37 3124.66 3772.52 3125.06L3752.35 3129.4C3750.5 3129.8 3748.67 3128.62 3748.27 3126.77 3747.87 3124.91 3749.05 3123.08 3750.91 3122.68ZM3797.95 3112.56 3818.12 3108.22C3819.97 3107.82 3821.8 3109 3822.2 3110.85 3822.6 3112.71 3821.42 3114.54 3819.56 3114.94L3799.4 3119.28C3797.54 3119.68 3795.72 3118.5 3795.32 3116.64 3794.92 3114.78 3796.1 3112.95 3797.95 3112.56ZM3845 3102.43 3865.16 3098.09C3867.02 3097.69 3868.85 3098.87 3869.25 3100.73 3869.65 3102.58 3868.47 3104.41 3866.61 3104.81L3846.45 3109.15C3844.59 3109.55 3842.76 3108.37 3842.36 3106.51 3841.96 3104.66 3843.14 3102.83 3845 3102.43ZM3892.05 3092.3 3912.21 3087.96C3914.07 3087.56 3915.9 3088.74 3916.3 3090.6 3916.69 3092.46 3915.51 3094.28 3913.66 3094.68L3893.49 3099.02C3891.64 3099.42 3889.81 3098.24 3889.41 3096.39 3889.01 3094.53 3890.19 3092.7 3892.05 3092.3ZM3939.1 3082.18 3959.26 3077.84C3961.11 3077.44 3962.94 3078.62 3963.34 3080.47 3963.74 3082.33 3962.56 3084.16 3960.71 3084.56L3940.54 3088.9C3938.69 3089.3 3936.86 3088.12 3936.46 3086.26 3936.06 3084.4 3937.24 3082.58 3939.1 3082.18ZM3986.14 3072.05 3989.91 3071.24 4007.05 3069.74C4008.94 3069.58 4010.61 3070.98 4010.77 3072.87 4010.93 3074.76 4009.53 3076.43 4007.64 3076.59L3991.35 3077.96 3987.59 3078.77C3985.73 3079.17 3983.91 3077.99 3983.51 3076.13 3983.11 3074.28 3984.29 3072.45 3986.14 3072.05ZM4034.45 3067.38 4055 3065.62C4056.89 3065.45 4058.55 3066.85 4058.72 3068.75 4058.88 3070.64 4057.48 3072.3 4055.59 3072.47L4035.04 3074.23C4033.15 3074.4 4031.48 3072.99 4031.32 3071.1 4031.16 3069.21 4032.56 3067.55 4034.45 3067.38ZM4082.4 3063.26 4102.95 3061.49C4104.84 3061.33 4106.5 3062.73 4106.66 3064.62 4106.83 3066.51 4105.43 3068.18 4103.53 3068.34L4082.99 3070.11C4081.09 3070.27 4079.43 3068.87 4079.27 3066.98 4079.1 3065.09 4080.5 3063.42 4082.4 3063.26ZM4130.34 3059.14 4150.89 3057.37C4152.78 3057.21 4154.45 3058.61 4154.61 3060.5 4154.78 3062.39 4153.37 3064.06 4151.48 3064.22L4130.93 3065.99C4129.04 3066.15 4127.38 3064.75 4127.21 3062.86 4127.05 3060.96 4128.45 3059.3 4130.34 3059.14ZM4178.29 3055.01 4198.84 3053.25C4200.73 3053.08 4202.4 3054.48 4202.56 3056.38 4202.72 3058.27 4201.32 3059.93 4199.43 3060.1L4178.88 3061.86C4176.99 3062.03 4175.32 3060.62 4175.16 3058.73 4175 3056.84 4176.4 3055.18 4178.29 3055.01ZM4226.24 3050.89 4246.79 3049.12C4248.68 3048.96 4250.35 3050.36 4250.51 3052.25 4250.67 3054.14 4249.27 3055.81 4247.38 3055.97L4226.83 3057.74C4224.94 3057.9 4223.27 3056.5 4223.11 3054.61 4222.95 3052.72 4224.35 3051.05 4226.24 3050.89ZM4274.19 3046.77 4294.74 3045C4296.63 3044.84 4298.29 3046.24 4298.46 3048.13 4298.62 3050.02 4297.22 3051.69 4295.33 3051.85L4274.78 3053.62C4272.89 3053.78 4271.22 3052.38 4271.06 3050.49 4270.9 3048.59 4272.3 3046.93 4274.19 3046.77ZM4322.14 3042.64 4342.69 3040.88C4344.58 3040.71 4346.24 3042.12 4346.4 3044.01 4346.57 3045.9 4345.17 3047.56 4343.27 3047.73L4322.73 3049.49C4320.83 3049.66 4319.17 3048.25 4319.01 3046.36 4318.84 3044.47 4320.24 3042.81 4322.14 3042.64ZM4370.08 3038.52 4390.63 3036.75C4392.52 3036.59 4394.19 3037.99 4394.35 3039.88 4394.52 3041.77 4393.11 3043.44 4391.22 3043.6L4370.67 3045.37C4368.78 3045.53 4367.12 3044.13 4366.95 3042.24 4366.79 3040.35 4368.19 3038.68 4370.08 3038.52ZM4418.03 3034.4 4438.58 3032.63C4440.47 3032.47 4442.14 3033.87 4442.3 3035.76 4442.46 3037.65 4441.06 3039.32 4439.17 3039.48L4418.62 3041.25C4416.73 3041.41 4415.06 3040.01 4414.9 3038.12 4414.74 3036.22 4416.14 3034.56 4418.03 3034.4ZM4465.98 3030.27 4486.53 3028.51C4488.42 3028.34 4490.09 3029.75 4490.25 3031.64 4490.41 3033.53 4489.01 3035.19 4487.12 3035.36L4466.57 3037.12C4464.68 3037.29 4463.01 3035.88 4462.85 3033.99 4462.69 3032.1 4464.09 3030.44 4465.98 3030.27ZM4513.93 3026.15 4534.48 3024.38C4536.37 3024.22 4538.03 3025.62 4538.2 3027.51 4538.36 3029.41 4536.96 3031.07 4535.07 3031.23L4514.52 3033C4512.63 3033.16 4510.96 3031.76 4510.8 3029.87 4510.64 3027.98 4512.04 3026.31 4513.93 3026.15ZM4561.88 3022.03 4582.43 3020.26C4584.32 3020.1 4585.98 3021.5 4586.15 3023.39 4586.31 3025.28 4584.91 3026.95 4583.01 3027.11L4562.47 3028.88C4560.57 3029.04 4558.91 3027.64 4558.75 3025.75 4558.58 3023.86 4559.98 3022.19 4561.88 3022.03Z" fill="#A5A5A5" fill-rule="nonzero" fill-opacity="1"/></g><g clip-path="url(#clip10)"><path d="M3397.42 3339.42C3397.42 3345.49 3392.49 3350.42 3386.42 3350.42 3380.34 3350.42 3375.42 3345.49 3375.42 3339.42 3375.42 3333.34 3380.34 3328.42 3386.42 3328.42 3392.49 3328.42 3397.42 3333.34 3397.42 3339.42Z" stroke="#A5A5A5" stroke-width="3.4375" stroke-linecap="butt" stroke-linejoin="round" stroke-miterlimit="10" stroke-opacity="1" fill="#A5A5A5" fill-rule="nonzero" fill-opacity="1"/><path d="M3397.42 3338.42C3397.42 3344.49 3392.49 3349.42 3386.42 3349.42 3380.34 3349.42 3375.42 3344.49 3375.42 3338.42 3375.42 3332.34 3380.34 3327.42 3386.42 3327.42 3392.49 3327.42 3397.42 3332.34 3397.42 3338.42Z" stroke="#A5A5A5" stroke-width="3.4375" stroke-linecap="butt" stroke-linejoin="round" stroke-miterlimit="10" stroke-opacity="1" fill="#A5A5A5" fill-rule="nonzero" fill-opacity="1"/><path d="M3398.42 3337.42C3398.42 3343.49 3393.49 3348.42 3387.42 3348.42 3381.34 3348.42 3376.42 3343.49 3376.42 3337.42 3376.42 3331.34 3381.34 3326.42 3387.42 3326.42 3393.49 3326.42 3398.42 3331.34 3398.42 3337.42Z" stroke="#A5A5A5" stroke-width="3.4375" stroke-linecap="butt" stroke-linejoin="round" stroke-miterlimit="10" stroke-opacity="1" fill="#A5A5A5" fill-rule="nonzero" fill-opacity="1"/><path d="M3399.42 3336.42C3399.42 3342.49 3394.49 3347.42 3388.42 3347.42 3382.34 3347.42 3377.42 3342.49 3377.42 3336.42 3377.42 3330.34 3382.34 3325.42 3388.42 3325.42 3394.49 3325.42 3399.42 3330.34 3399.42 3336.42Z" stroke="#A5A5A5" stroke-width="3.4375" stroke-linecap="butt" stroke-linejoin="round" stroke-miterlimit="10" stroke-opacity="1" fill="#A5A5A5" fill-rule="nonzero" fill-opacity="1"/><path d="M3401.42 3333.42C3401.42 3339.49 3396.49 3344.42 3390.42 3344.42 3384.34 3344.42 3379.42 3339.49 3379.42 3333.42 3379.42 3327.34 3384.34 3322.42 3390.42 3322.42 3396.49 3322.42 3401.42 3327.34 3401.42 3333.42Z" stroke="#A5A5A5" stroke-width="3.4375" stroke-linecap="butt" stroke-linejoin="round" stroke-miterlimit="10" stroke-opacity="1" fill="#A5A5A5" fill-rule="nonzero" fill-opacity="1"/><path d="M3406.42 3327.42C3406.42 3333.49 3401.49 3338.42 3395.42 3338.42 3389.34 3338.42 3384.42 3333.49 3384.42 3327.42 3384.42 3321.34 3389.34 3316.42 3395.42 3316.42 3401.49 3316.42 3406.42 3321.34 3406.42 3327.42Z" stroke="#A5A5A5" stroke-width="3.4375" stroke-linecap="butt" stroke-linejoin="round" stroke-miterlimit="10" stroke-opacity="1" fill="#A5A5A5" fill-rule="nonzero" fill-opacity="1"/><path d="M3415.42 3315.42C3415.42 3321.49 3410.49 3326.42 3404.42 3326.42 3398.34 3326.42 3393.42 3321.49 3393.42 3315.42 3393.42 3309.34 3398.34 3304.42 3404.42 3304.42 3410.49 3304.42 3415.42 3309.34 3415.42 3315.42Z" stroke="#A5A5A5" stroke-width="3.4375" stroke-linecap="butt" stroke-linejoin="round" stroke-miterlimit="10" stroke-opacity="1" fill="#A5A5A5" fill-rule="nonzero" fill-opacity="1"/><path d="M3434.42 3294.42C3434.42 3300.49 3429.49 3305.42 3423.42 3305.42 3417.34 3305.42 3412.42 3300.49 3412.42 3294.42 3412.42 3288.34 3417.34 3283.42 3423.42 3283.42 3429.49 3283.42 3434.42 3288.34 3434.42 3294.42Z" stroke="#A5A5A5" stroke-width="3.4375" stroke-linecap="butt" stroke-linejoin="round" stroke-miterlimit="10" stroke-opacity="1" fill="#A5A5A5" fill-rule="nonzero" fill-opacity="1"/><path d="M3472.42 3259.42C3472.42 3265.49 3467.49 3270.42 3461.42 3270.42 3455.34 3270.42 3450.42 3265.49 3450.42 3259.42 3450.42 3253.34 3455.34 3248.42 3461.42 3248.42 3467.49 3248.42 3472.42 3253.34 3472.42 3259.42Z" stroke="#A5A5A5" stroke-width="3.4375" stroke-linecap="butt" stroke-linejoin="round" stroke-miterlimit="10" stroke-opacity="1" fill="#A5A5A5" fill-rule="nonzero" fill-opacity="1"/><path d="M3548.42 3205.42C3548.42 3211.49 3543.49 3216.42 3537.42 3216.42 3531.34 3216.42 3526.42 3211.49 3526.42 3205.42 3526.42 3199.34 3531.34 3194.42 3537.42 3194.42 3543.49 3194.42 3548.42 3199.34 3548.42 3205.42Z" stroke="#A5A5A5" stroke-width="3.4375" stroke-linecap="butt" stroke-linejoin="round" stroke-miterlimit="10" stroke-opacity="1" fill="#A5A5A5" fill-rule="nonzero" fill-opacity="1"/><path d="M3699.42 3139.42C3699.42 3145.49 3694.49 3150.42 3688.42 3150.42 3682.34 3150.42 3677.42 3145.49 3677.42 3139.42 3677.42 3133.34 3682.34 3128.42 3688.42 3128.42 3694.49 3128.42 3699.42 3133.34 3699.42 3139.42Z" stroke="#A5A5A5" stroke-width="3.4375" stroke-linecap="butt" stroke-linejoin="round" stroke-miterlimit="10" stroke-opacity="1" fill="#A5A5A5" fill-rule="nonzero" fill-opacity="1"/><path d="M4002.42 3074.42C4002.42 3080.49 3997.49 3085.42 3991.42 3085.42 3985.34 3085.42 3980.42 3080.49 3980.42 3074.42 3980.42 3068.34 3985.34 3063.42 3991.42 3063.42 3997.49 3063.42 4002.42 3068.34 4002.42 3074.42Z" stroke="#A5A5A5" stroke-width="3.4375" stroke-linecap="butt" stroke-linejoin="round" stroke-miterlimit="10" stroke-opacity="1" fill="#A5A5A5" fill-rule="nonzero" fill-opacity="1"/><path d="M4607.42 3022.42C4607.42 3028.49 4602.49 3033.42 4596.42 3033.42 4590.34 3033.42 4585.42 3028.49 4585.42 3022.42 4585.42 3016.34 4590.34 3011.42 4596.42 3011.42 4602.49 3011.42 4607.42 3016.34 4607.42 3022.42Z" stroke="#A5A5A5" stroke-width="3.4375" stroke-linecap="butt" stroke-linejoin="round" stroke-miterlimit="10" stroke-opacity="1" fill="#A5A5A5" fill-rule="nonzero" fill-opacity="1"/></g><g clip-path="url(#clip11)"><path d="M3383.09 3339.07 3383.2 3338.18 3383.17 3337.61C3383.17 3336.31 3383.91 3335.12 3385.07 3334.54L3387.07 3333.54 3385.75 3334.7 3387.75 3331.7 3392.81 3324.61 3395.43 3321.12C3396.57 3319.6 3398.73 3319.29 3400.24 3320.43 3401.76 3321.57 3402.07 3323.73 3400.93 3325.25L3398.41 3328.61 3393.47 3335.52 3391.47 3338.52C3391.14 3339.01 3390.68 3339.42 3390.15 3339.68L3388.15 3340.68 3390.05 3337.61 3390.02 3339.04 3389.91 3339.93C3389.68 3341.81 3387.96 3343.15 3386.07 3342.91 3384.19 3342.68 3382.85 3340.96 3383.09 3339.07ZM3412.65 3299.48 3420.96 3289.42 3426.15 3283.69C3427.42 3282.28 3429.59 3282.17 3431 3283.44 3432.41 3284.72 3432.52 3286.89 3431.24 3288.3L3426.26 3293.8 3417.95 3303.86C3416.74 3305.32 3414.57 3305.53 3413.11 3304.32 3411.65 3303.11 3411.44 3300.94 3412.65 3299.48ZM3444.6 3263.29 3458.43 3248C3459.71 3246.59 3461.88 3246.48 3463.29 3247.76 3464.7 3249.03 3464.8 3251.2 3463.53 3252.61L3449.69 3267.91C3448.42 3269.31 3446.25 3269.42 3444.84 3268.15 3443.43 3266.88 3443.32 3264.7 3444.6 3263.29ZM3478.67 3228.96 3493.75 3214.89C3495.13 3213.59 3497.31 3213.66 3498.6 3215.05 3499.9 3216.44 3499.83 3218.61 3498.44 3219.91L3483.37 3233.99C3481.98 3235.28 3479.8 3235.21 3478.51 3233.82 3477.21 3232.44 3477.29 3230.26 3478.67 3228.96ZM3513.84 3196.11 3528.91 3182.03C3530.3 3180.74 3532.47 3180.81 3533.77 3182.2 3535.07 3183.58 3534.99 3185.76 3533.61 3187.06L3518.53 3201.14C3517.15 3202.43 3514.97 3202.36 3513.68 3200.97 3512.38 3199.58 3512.45 3197.41 3513.84 3196.11ZM3551.03 3164.99 3567.91 3153.14C3569.46 3152.05 3571.61 3152.42 3572.7 3153.98 3573.79 3155.53 3573.41 3157.68 3571.86 3158.77L3554.98 3170.62C3553.42 3171.71 3551.28 3171.33 3550.19 3169.78 3549.1 3168.22 3549.47 3166.08 3551.03 3164.99ZM3590.42 3137.34 3607.3 3125.49C3608.85 3124.4 3611 3124.77 3612.09 3126.33 3613.18 3127.88 3612.8 3130.03 3611.25 3131.12L3594.37 3142.97C3592.81 3144.06 3590.67 3143.68 3589.58 3142.13 3588.49 3140.57 3588.86 3138.43 3590.42 3137.34ZM3629.81 3109.69 3646.69 3097.84C3648.24 3096.75 3650.38 3097.12 3651.48 3098.68 3652.57 3100.23 3652.19 3102.38 3650.64 3103.47L3633.76 3115.32C3632.2 3116.41 3630.06 3116.03 3628.97 3114.48 3627.88 3112.92 3628.25 3110.78 3629.81 3109.69ZM3669.19 3082.04 3686.08 3070.19C3687.63 3069.1 3689.77 3069.47 3690.86 3071.03 3691.95 3072.58 3691.58 3074.72 3690.03 3075.82L3673.14 3087.67C3671.59 3088.76 3669.45 3088.38 3668.36 3086.83 3667.27 3085.27 3667.64 3083.13 3669.19 3082.04ZM3711.8 3058.72 3730.7 3050.46C3732.44 3049.7 3734.47 3050.49 3735.23 3052.23 3735.99 3053.97 3735.2 3056 3733.46 3056.76L3714.56 3065.02C3712.82 3065.78 3710.79 3064.98 3710.03 3063.24 3709.27 3061.5 3710.06 3059.48 3711.8 3058.72ZM3755.9 3039.44 3774.8 3031.18C3776.54 3030.42 3778.57 3031.22 3779.33 3032.96 3780.09 3034.7 3779.29 3036.72 3777.55 3037.48L3758.65 3045.74C3756.91 3046.5 3754.89 3045.71 3754.13 3043.97 3753.37 3042.23 3754.16 3040.2 3755.9 3039.44ZM3800 3020.17 3818.9 3011.91C3820.64 3011.15 3822.66 3011.94 3823.42 3013.68 3824.18 3015.42 3823.39 3017.45 3821.65 3018.21L3802.75 3026.47C3801.01 3027.23 3798.98 3026.43 3798.22 3024.7 3797.46 3022.96 3798.26 3020.93 3800 3020.17ZM3844.09 3000.89 3862.99 2992.63C3864.73 2991.87 3866.76 2992.67 3867.52 2994.41 3868.28 2996.15 3867.49 2998.17 3865.75 2998.93L3846.85 3007.19C3845.11 3007.95 3843.08 3007.16 3842.32 3005.42 3841.56 3003.68 3842.35 3001.66 3844.09 3000.89ZM3888.19 2981.62 3907.09 2973.36C3908.83 2972.6 3910.86 2973.39 3911.62 2975.13 3912.38 2976.87 3911.58 2978.9 3909.84 2979.66L3890.94 2987.92C3889.2 2988.68 3887.18 2987.89 3886.42 2986.15 3885.66 2984.41 3886.45 2982.38 3888.19 2981.62ZM3932.29 2962.35 3951.19 2954.09C3952.93 2953.33 3954.95 2954.12 3955.71 2955.86 3956.47 2957.6 3955.68 2959.63 3953.94 2960.39L3935.04 2968.65C3933.3 2969.41 3931.27 2968.61 3930.51 2966.87 3929.75 2965.13 3930.55 2963.11 3932.29 2962.35ZM3976.38 2943.07 3989.25 2937.45C3989.46 2937.36 3989.68 2937.29 3989.9 2937.24L3996.33 2935.85C3998.19 2935.44 4000.02 2936.62 4000.42 2938.48 4000.82 2940.33 3999.64 2942.16 3997.79 2942.57L3991.36 2943.96 3992.01 2943.75 3979.14 2949.37C3977.4 2950.13 3975.37 2949.34 3974.61 2947.6 3973.85 2945.86 3974.64 2943.83 3976.38 2943.07ZM4023.21 2930.03 4043.37 2925.67C4045.23 2925.27 4047.06 2926.45 4047.46 2928.3 4047.86 2930.16 4046.68 2931.99 4044.82 2932.39L4024.67 2936.75C4022.81 2937.15 4020.98 2935.97 4020.58 2934.12 4020.18 2932.26 4021.36 2930.43 4023.21 2930.03ZM4070.25 2919.85 4090.41 2915.49C4092.26 2915.09 4094.09 2916.27 4094.49 2918.12 4094.9 2919.98 4093.72 2921.81 4091.86 2922.21L4071.7 2926.57C4069.85 2926.97 4068.02 2925.79 4067.62 2923.94 4067.21 2922.08 4068.39 2920.25 4070.25 2919.85ZM4117.29 2909.67 4137.44 2905.31C4139.3 2904.91 4141.13 2906.09 4141.53 2907.95 4141.93 2909.8 4140.75 2911.63 4138.9 2912.03L4118.74 2916.39C4116.88 2916.8 4115.05 2915.62 4114.65 2913.76 4114.25 2911.91 4115.43 2910.08 4117.29 2909.67ZM4164.32 2899.5 4184.48 2895.14C4186.34 2894.73 4188.17 2895.91 4188.57 2897.77 4188.97 2899.62 4187.79 2901.45 4185.93 2901.85L4165.78 2906.22C4163.92 2906.62 4162.09 2905.44 4161.69 2903.58 4161.29 2901.73 4162.47 2899.9 4164.32 2899.5ZM4211.36 2889.32 4231.52 2884.96C4233.37 2884.56 4235.2 2885.73 4235.6 2887.59 4236 2889.45 4234.83 2891.28 4232.97 2891.68L4212.81 2896.04C4210.96 2896.44 4209.13 2895.26 4208.73 2893.41 4208.32 2891.55 4209.5 2889.72 4211.36 2889.32ZM4258.4 2879.14 4278.55 2874.78C4280.41 2874.38 4282.24 2875.56 4282.64 2877.41 4283.04 2879.27 4281.86 2881.1 4280.01 2881.5L4259.85 2885.86C4257.99 2886.26 4256.16 2885.08 4255.76 2883.23 4255.36 2881.37 4256.54 2879.54 4258.4 2879.14ZM4305.43 2868.96 4325.59 2864.6C4327.45 2864.2 4329.27 2865.38 4329.68 2867.23 4330.08 2869.09 4328.9 2870.92 4327.04 2871.32L4306.89 2875.68C4305.03 2876.08 4303.2 2874.91 4302.8 2873.05 4302.4 2871.2 4303.58 2869.37 4305.43 2868.96ZM4352.47 2858.79 4372.63 2854.42C4374.48 2854.02 4376.31 2855.2 4376.71 2857.06 4377.11 2858.91 4375.94 2860.74 4374.08 2861.14L4353.92 2865.51C4352.07 2865.91 4350.24 2864.73 4349.83 2862.87 4349.43 2861.02 4350.61 2859.19 4352.47 2858.79ZM4399.5 2848.61 4419.66 2844.25C4421.52 2843.85 4423.35 2845.02 4423.75 2846.88 4424.15 2848.73 4422.97 2850.56 4421.12 2850.97L4400.96 2855.33C4399.1 2855.73 4397.27 2854.55 4396.87 2852.7 4396.47 2850.84 4397.65 2849.01 4399.5 2848.61ZM4446.54 2838.43 4466.7 2834.07C4468.55 2833.67 4470.38 2834.85 4470.79 2836.7 4471.19 2838.56 4470.01 2840.39 4468.15 2840.79L4447.99 2845.15C4446.14 2845.55 4444.31 2844.37 4443.91 2842.52 4443.51 2840.66 4444.69 2838.83 4446.54 2838.43ZM4493.58 2828.25 4513.74 2823.89C4515.59 2823.49 4517.42 2824.67 4517.82 2826.52 4518.22 2828.38 4517.05 2830.21 4515.19 2830.61L4495.03 2834.97C4493.18 2835.37 4491.35 2834.2 4490.94 2832.34 4490.54 2830.48 4491.72 2828.65 4493.58 2828.25ZM4540.61 2818.08 4560.77 2813.71C4562.63 2813.31 4564.46 2814.49 4564.86 2816.35 4565.26 2818.2 4564.08 2820.03 4562.23 2820.43L4542.07 2824.8C4540.21 2825.2 4538.38 2824.02 4537.98 2822.16 4537.58 2820.31 4538.76 2818.48 4540.61 2818.08ZM4587.65 2807.9 4595.77 2806.14C4597.63 2805.74 4599.46 2806.92 4599.86 2808.77 4600.26 2810.63 4599.08 2812.46 4597.23 2812.86L4589.1 2814.62C4587.25 2815.02 4585.42 2813.84 4585.02 2811.98 4584.62 2810.13 4585.79 2808.3 4587.65 2807.9Z" fill="#FFC000" fill-rule="nonzero" fill-opacity="1"/></g><g clip-path="url(#clip12)"><path d="M3397.42 3339.42C3397.42 3345.49 3392.49 3350.42 3386.42 3350.42 3380.34 3350.42 3375.42 3345.49 3375.42 3339.42 3375.42 3333.34 3380.34 3328.42 3386.42 3328.42 3392.49 3328.42 3397.42 3333.34 3397.42 3339.42Z" stroke="#FFC000" stroke-width="3.4375" stroke-linecap="butt" stroke-linejoin="round" stroke-miterlimit="10" stroke-opacity="1" fill="#FFC000" fill-rule="nonzero" fill-opacity="1"/><path d="M3397.42 3338.42C3397.42 3344.49 3392.49 3349.42 3386.42 3349.42 3380.34 3349.42 3375.42 3344.49 3375.42 3338.42 3375.42 3332.34 3380.34 3327.42 3386.42 3327.42 3392.49 3327.42 3397.42 3332.34 3397.42 3338.42Z" stroke="#FFC000" stroke-width="3.4375" stroke-linecap="butt" stroke-linejoin="round" stroke-miterlimit="10" stroke-opacity="1" fill="#FFC000" fill-rule="nonzero" fill-opacity="1"/><path d="M3398.42 3337.42C3398.42 3343.49 3393.49 3348.42 3387.42 3348.42 3381.34 3348.42 3376.42 3343.49 3376.42 3337.42 3376.42 3331.34 3381.34 3326.42 3387.42 3326.42 3393.49 3326.42 3398.42 3331.34 3398.42 3337.42Z" stroke="#FFC000" stroke-width="3.4375" stroke-linecap="butt" stroke-linejoin="round" stroke-miterlimit="10" stroke-opacity="1" fill="#FFC000" fill-rule="nonzero" fill-opacity="1"/><path d="M3399.42 3336.42C3399.42 3342.49 3394.49 3347.42 3388.42 3347.42 3382.34 3347.42 3377.42 3342.49 3377.42 3336.42 3377.42 3330.34 3382.34 3325.42 3388.42 3325.42 3394.49 3325.42 3399.42 3330.34 3399.42 3336.42Z" stroke="#FFC000" stroke-width="3.4375" stroke-linecap="butt" stroke-linejoin="round" stroke-miterlimit="10" stroke-opacity="1" fill="#FFC000" fill-rule="nonzero" fill-opacity="1"/><path d="M3401.42 3333.42C3401.42 3339.49 3396.49 3344.42 3390.42 3344.42 3384.34 3344.42 3379.42 3339.49 3379.42 3333.42 3379.42 3327.34 3384.34 3322.42 3390.42 3322.42 3396.49 3322.42 3401.42 3327.34 3401.42 3333.42Z" stroke="#FFC000" stroke-width="3.4375" stroke-linecap="butt" stroke-linejoin="round" stroke-miterlimit="10" stroke-opacity="1" fill="#FFC000" fill-rule="nonzero" fill-opacity="1"/><path d="M3406.42 3326.42C3406.42 3332.49 3401.49 3337.42 3395.42 3337.42 3389.34 3337.42 3384.42 3332.49 3384.42 3326.42 3384.42 3320.34 3389.34 3315.42 3395.42 3315.42 3401.49 3315.42 3406.42 3320.34 3406.42 3326.42Z" stroke="#FFC000" stroke-width="3.4375" stroke-linecap="butt" stroke-linejoin="round" stroke-miterlimit="10" stroke-opacity="1" fill="#FFC000" fill-rule="nonzero" fill-opacity="1"/><path d="M3415.42 3314.42C3415.42 3320.49 3410.49 3325.42 3404.42 3325.42 3398.34 3325.42 3393.42 3320.49 3393.42 3314.42 3393.42 3308.34 3398.34 3303.42 3404.42 3303.42 3410.49 3303.42 3415.42 3308.34 3415.42 3314.42Z" stroke="#FFC000" stroke-width="3.4375" stroke-linecap="butt" stroke-linejoin="round" stroke-miterlimit="10" stroke-opacity="1" fill="#FFC000" fill-rule="nonzero" fill-opacity="1"/><path d="M3434.42 3291.42C3434.42 3297.49 3429.49 3302.42 3423.42 3302.42 3417.34 3302.42 3412.42 3297.49 3412.42 3291.42 3412.42 3285.34 3417.34 3280.42 3423.42 3280.42 3429.49 3280.42 3434.42 3285.34 3434.42 3291.42Z" stroke="#FFC000" stroke-width="3.4375" stroke-linecap="butt" stroke-linejoin="round" stroke-miterlimit="10" stroke-opacity="1" fill="#FFC000" fill-rule="nonzero" fill-opacity="1"/><path d="M3472.42 3249.42C3472.42 3255.49 3467.49 3260.42 3461.42 3260.42 3455.34 3260.42 3450.42 3255.49 3450.42 3249.42 3450.42 3243.34 3455.34 3238.42 3461.42 3238.42 3467.49 3238.42 3472.42 3243.34 3472.42 3249.42Z" stroke="#FFC000" stroke-width="3.4375" stroke-linecap="butt" stroke-linejoin="round" stroke-miterlimit="10" stroke-opacity="1" fill="#FFC000" fill-rule="nonzero" fill-opacity="1"/><path d="M3548.42 3178.42C3548.42 3184.49 3543.49 3189.42 3537.42 3189.42 3531.34 3189.42 3526.42 3184.49 3526.42 3178.42 3526.42 3172.34 3531.34 3167.42 3537.42 3167.42 3543.49 3167.42 3548.42 3172.34 3548.42 3178.42Z" stroke="#FFC000" stroke-width="3.4375" stroke-linecap="butt" stroke-linejoin="round" stroke-miterlimit="10" stroke-opacity="1" fill="#FFC000" fill-rule="nonzero" fill-opacity="1"/><path d="M3699.42 3072.42C3699.42 3078.49 3694.49 3083.42 3688.42 3083.42 3682.34 3083.42 3677.42 3078.49 3677.42 3072.42 3677.42 3066.34 3682.34 3061.42 3688.42 3061.42 3694.49 3061.42 3699.42 3066.34 3699.42 3072.42Z" stroke="#FFC000" stroke-width="3.4375" stroke-linecap="butt" stroke-linejoin="round" stroke-miterlimit="10" stroke-opacity="1" fill="#FFC000" fill-rule="nonzero" fill-opacity="1"/><path d="M4002.42 2940.42C4002.42 2946.49 3997.49 2951.42 3991.42 2951.42 3985.34 2951.42 3980.42 2946.49 3980.42 2940.42 3980.42 2934.34 3985.34 2929.42 3991.42 2929.42 3997.49 2929.42 4002.42 2934.34 4002.42 2940.42Z" stroke="#FFC000" stroke-width="3.4375" stroke-linecap="butt" stroke-linejoin="round" stroke-miterlimit="10" stroke-opacity="1" fill="#FFC000" fill-rule="nonzero" fill-opacity="1"/><path d="M4607.42 2809.42C4607.42 2815.49 4602.49 2820.42 4596.42 2820.42 4590.34 2820.42 4585.42 2815.49 4585.42 2809.42 4585.42 2803.34 4590.34 2798.42 4596.42 2798.42 4602.49 2798.42 4607.42 2803.34 4607.42 2809.42Z" stroke="#FFC000" stroke-width="3.4375" stroke-linecap="butt" stroke-linejoin="round" stroke-miterlimit="10" stroke-opacity="1" fill="#FFC000" fill-rule="nonzero" fill-opacity="1"/></g><g clip-path="url(#clip13)"><text fill="#595959" fill-opacity="1" font-family="Calibri,Calibri_MSFontService,sans-serif" font-style="normal" font-variant="normal" font-weight="400" font-stretch="normal" font-size="41" text-anchor="start" direction="ltr" writing-mode="lr-tb" unicode-bidi="normal" text-decoration="none" transform="matrix(1 0 0 1 3326.7 3349)">0</text></g><g clip-path="url(#clip14)"><text fill="#595959" fill-opacity="1" font-family="Calibri,Calibri_MSFontService,sans-serif" font-style="normal" font-variant="normal" font-weight="400" font-stretch="normal" font-size="41" text-anchor="start" direction="ltr" writing-mode="lr-tb" unicode-bidi="normal" text-decoration="none" transform="matrix(1 0 0 1 3305.8 3269)">50</text></g><g clip-path="url(#clip15)"><text fill="#595959" fill-opacity="1" font-family="Calibri,Calibri_MSFontService,sans-serif" font-style="normal" font-variant="normal" font-weight="400" font-stretch="normal" font-size="41" text-anchor="start" direction="ltr" writing-mode="lr-tb" unicode-bidi="normal" text-decoration="none" transform="matrix(1 0 0 1 3284.9 3189)">100</text></g><g clip-path="url(#clip16)"><text fill="#595959" fill-opacity="1" font-family="Calibri,Calibri_MSFontService,sans-serif" font-style="normal" font-variant="normal" font-weight="400" font-stretch="normal" font-size="41" text-anchor="start" direction="ltr" writing-mode="lr-tb" unicode-bidi="normal" text-decoration="none" transform="matrix(1 0 0 1 3284.9 3109)">150</text></g><g clip-path="url(#clip17)"><text fill="#595959" fill-opacity="1" font-family="Calibri,Calibri_MSFontService,sans-serif" font-style="normal" font-variant="normal" font-weight="400" font-stretch="normal" font-size="41" text-anchor="start" direction="ltr" writing-mode="lr-tb" unicode-bidi="normal" text-decoration="none" transform="matrix(1 0 0 1 3284.9 3029)">200</text></g><g clip-path="url(#clip18)"><text fill="#595959" fill-opacity="1" font-family="Calibri,Calibri_MSFontService,sans-serif" font-style="normal" font-variant="normal" font-weight="400" font-stretch="normal" font-size="41" text-anchor="start" direction="ltr" writing-mode="lr-tb" unicode-bidi="normal" text-decoration="none" transform="matrix(1 0 0 1 3284.9 2949)">250</text></g><g clip-path="url(#clip19)"><text fill="#595959" fill-opacity="1" font-family="Calibri,Calibri_MSFontService,sans-serif" font-style="normal" font-variant="normal" font-weight="400" font-stretch="normal" font-size="41" text-anchor="start" direction="ltr" writing-mode="lr-tb" unicode-bidi="normal" text-decoration="none" transform="matrix(1 0 0 1 3284.9 2869)">300</text></g><g clip-path="url(#clip20)"><text fill="#595959" fill-opacity="1" font-family="Calibri,Calibri_MSFontService,sans-serif" font-style="normal" font-variant="normal" font-weight="400" font-stretch="normal" font-size="41" text-anchor="start" direction="ltr" writing-mode="lr-tb" unicode-bidi="normal" text-decoration="none" transform="matrix(1 0 0 1 3284.9 2789)">350</text></g><g clip-path="url(#clip21)"><text fill="#595959" fill-opacity="1" font-family="Calibri,Calibri_MSFontService,sans-serif" font-style="normal" font-variant="normal" font-weight="400" font-stretch="normal" font-size="41" text-anchor="start" direction="ltr" writing-mode="lr-tb" unicode-bidi="normal" text-decoration="none" transform="matrix(1 0 0 1 3375.41 3405)">0</text></g><g clip-path="url(#clip22)"><text fill="#595959" fill-opacity="1" font-family="Calibri,Calibri_MSFontService,sans-serif" font-style="normal" font-variant="normal" font-weight="400" font-stretch="normal" font-size="41" text-anchor="start" direction="ltr" writing-mode="lr-tb" unicode-bidi="normal" text-decoration="none" transform="matrix(1 0 0 1 3502.27 3405)">500</text></g><g clip-path="url(#clip23)"><text fill="#595959" fill-opacity="1" font-family="Calibri,Calibri_MSFontService,sans-serif" font-style="normal" font-variant="normal" font-weight="400" font-stretch="normal" font-size="41" text-anchor="start" direction="ltr" writing-mode="lr-tb" unicode-bidi="normal" text-decoration="none" transform="matrix(1 0 0 1 3639.58 3405)">1000</text></g><g clip-path="url(#clip24)"><text fill="#595959" fill-opacity="1" font-family="Calibri,Calibri_MSFontService,sans-serif" font-style="normal" font-variant="normal" font-weight="400" font-stretch="normal" font-size="41" text-anchor="start" direction="ltr" writing-mode="lr-tb" unicode-bidi="normal" text-decoration="none" transform="matrix(1 0 0 1 3787.34 3405)">1500</text></g><g clip-path="url(#clip25)"><text fill="#595959" fill-opacity="1" font-family="Calibri,Calibri_MSFontService,sans-serif" font-style="normal" font-variant="normal" font-weight="400" font-stretch="normal" font-size="41" text-anchor="start" direction="ltr" writing-mode="lr-tb" unicode-bidi="normal" text-decoration="none" transform="matrix(1 0 0 1 3935.1 3405)">2000</text></g><g clip-path="url(#clip26)"><text fill="#595959" fill-opacity="1" font-family="Calibri,Calibri_MSFontService,sans-serif" font-style="normal" font-variant="normal" font-weight="400" font-stretch="normal" font-size="41" text-anchor="start" direction="ltr" writing-mode="lr-tb" unicode-bidi="normal" text-decoration="none" transform="matrix(1 0 0 1 4082.86 3405)">2500</text></g><g clip-path="url(#clip27)"><text fill="#595959" fill-opacity="1" font-family="Calibri,Calibri_MSFontService,sans-serif" font-style="normal" font-variant="normal" font-weight="400" font-stretch="normal" font-size="41" text-anchor="start" direction="ltr" writing-mode="lr-tb" unicode-bidi="normal" text-decoration="none" transform="matrix(1 0 0 1 4230.62 3405)">3000</text></g><g clip-path="url(#clip28)"><text fill="#595959" fill-opacity="1" font-family="Calibri,Calibri_MSFontService,sans-serif" font-style="normal" font-variant="normal" font-weight="400" font-stretch="normal" font-size="41" text-anchor="start" direction="ltr" writing-mode="lr-tb" unicode-bidi="normal" text-decoration="none" transform="matrix(1 0 0 1 4378.38 3405)">3500</text></g><g clip-path="url(#clip29)"><text fill="#595959" fill-opacity="1" font-family="Calibri,Calibri_MSFontService,sans-serif" font-style="normal" font-variant="normal" font-weight="400" font-stretch="normal" font-size="41" text-anchor="start" direction="ltr" writing-mode="lr-tb" unicode-bidi="normal" text-decoration="none" transform="matrix(1 0 0 1 4526.14 3405)">4000</text></g><g clip-path="url(#clip30)"><text fill="#595959" fill-opacity="1" font-family="Calibri,Calibri_MSFontService,sans-serif" font-style="normal" font-variant="normal" font-weight="400" font-stretch="normal" font-size="41" text-anchor="start" direction="ltr" writing-mode="lr-tb" unicode-bidi="normal" text-decoration="none" transform="matrix(1 0 0 1 4673.9 3405)">4500</text></g><g clip-path="url(#clip31)"><text fill="#595959" fill-opacity="1" font-family="Calibri,Calibri_MSFontService,sans-serif" font-style="normal" font-variant="normal" font-weight="400" font-stretch="normal" font-size="46" text-anchor="start" direction="ltr" writing-mode="lr-tb" unicode-bidi="normal" text-decoration="none" transform="matrix(6.12323e-17 -1 1 6.12323e-17 3250.04 3184)">Performance (ns/day)</text></g><g clip-path="url(#clip32)"><text fill="#595959" fill-opacity="1" font-family="Calibri,Calibri_MSFontService,sans-serif" font-style="normal" font-variant="normal" font-weight="400" font-stretch="normal" font-size="46" text-anchor="start" direction="ltr" writing-mode="lr-tb" unicode-bidi="normal" text-decoration="none" transform="matrix(1 0 0 1 4003.07 3474)">CPUs</text></g><g clip-path="url(#clip33)"><path d="M3500.5 2617.5 3615.5 2617.5" stroke="#4472C4" stroke-width="6.875" stroke-linecap="round" stroke-linejoin="round" stroke-miterlimit="10" stroke-opacity="1" fill="none" fill-rule="evenodd"/></g><g clip-path="url(#clip34)"><path d="M3568 2617C3568 2623.07 3563.07 2628 3557 2628 3550.93 2628 3546 2623.07 3546 2617 3546 2610.92 3550.93 2606 3557 2606 3563.07 2606 3568 2610.92 3568 2617Z" stroke="#4472C4" stroke-width="3.4375" stroke-linecap="butt" stroke-linejoin="round" stroke-miterlimit="10" stroke-opacity="1" fill="#4472C4" fill-rule="nonzero" fill-opacity="1"/></g><g clip-path="url(#clip35)"><text fill="#595959" fill-opacity="1" font-family="Calibri,Calibri_MSFontService,sans-serif" font-style="normal" font-variant="normal" font-weight="400" font-stretch="normal" font-size="41" text-anchor="start" direction="ltr" writing-mode="lr-tb" unicode-bidi="normal" text-decoration="none" transform="matrix(1 0 0 1 3628.42 2627)">Measured</text></g><g clip-path="url(#clip36)"><path d="M4108.5 2614.06 4129.12 2614.06C4131.02 2614.06 4132.56 2615.6 4132.56 2617.5 4132.56 2619.4 4131.02 2620.94 4129.12 2620.94L4108.5 2620.94C4106.6 2620.94 4105.06 2619.4 4105.06 2617.5 4105.06 2615.6 4106.6 2614.06 4108.5 2614.06ZM4156.62 2614.06 4177.25 2614.06C4179.15 2614.06 4180.69 2615.6 4180.69 2617.5 4180.69 2619.4 4179.15 2620.94 4177.25 2620.94L4156.62 2620.94C4154.73 2620.94 4153.19 2619.4 4153.19 2617.5 4153.19 2615.6 4154.73 2614.06 4156.62 2614.06ZM4204.75 2614.06 4224.5 2614.06C4226.4 2614.06 4227.94 2615.6 4227.94 2617.5 4227.94 2619.4 4226.4 2620.94 4224.5 2620.94L4204.75 2620.94C4202.85 2620.94 4201.31 2619.4 4201.31 2617.5 4201.31 2615.6 4202.85 2614.06 4204.75 2614.06Z" fill="#ED7D31" fill-rule="nonzero" fill-opacity="1"/></g><g clip-path="url(#clip37)"><path d="M4177 2617C4177 2623.07 4172.08 2628 4166 2628 4159.92 2628 4155 2623.07 4155 2617 4155 2610.92 4159.92 2606 4166 2606 4172.08 2606 4177 2610.92 4177 2617Z" stroke="#ED7D31" stroke-width="3.4375" stroke-linecap="butt" stroke-linejoin="round" stroke-miterlimit="10" stroke-opacity="1" fill="#ED7D31" fill-rule="nonzero" fill-opacity="1"/></g><g clip-path="url(#clip38)"><text fill="#595959" fill-opacity="1" font-family="Calibri,Calibri_MSFontService,sans-serif" font-style="normal" font-variant="normal" font-weight="400" font-stretch="normal" font-size="41" text-anchor="start" direction="ltr" writing-mode="lr-tb" unicode-bidi="normal" text-decoration="none" transform="matrix(1 0 0 1 4236.72 2627)">Amdahl's 99%</text></g><g clip-path="url(#clip39)"><path d="M3500.5 2688.06 3521.12 2688.06C3523.02 2688.06 3524.56 2689.6 3524.56 2691.5 3524.56 2693.4 3523.02 2694.94 3521.12 2694.94L3500.5 2694.94C3498.6 2694.94 3497.06 2693.4 3497.06 2691.5 3497.06 2689.6 3498.6 2688.06 3500.5 2688.06ZM3548.62 2688.06 3569.25 2688.06C3571.15 2688.06 3572.69 2689.6 3572.69 2691.5 3572.69 2693.4 3571.15 2694.94 3569.25 2694.94L3548.62 2694.94C3546.73 2694.94 3545.19 2693.4 3545.19 2691.5 3545.19 2689.6 3546.73 2688.06 3548.62 2688.06ZM3596.75 2688.06 3615.5 2688.06C3617.4 2688.06 3618.94 2689.6 3618.94 2691.5 3618.94 2693.4 3617.4 2694.94 3615.5 2694.94L3596.75 2694.94C3594.85 2694.94 3593.31 2693.4 3593.31 2691.5 3593.31 2689.6 3594.85 2688.06 3596.75 2688.06Z" fill="#A5A5A5" fill-rule="nonzero" fill-opacity="1"/></g><g clip-path="url(#clip40)"><path d="M3568 2691C3568 2697.07 3563.07 2702 3557 2702 3550.93 2702 3546 2697.07 3546 2691 3546 2684.92 3550.93 2680 3557 2680 3563.07 2680 3568 2684.92 3568 2691Z" stroke="#A5A5A5" stroke-width="3.4375" stroke-linecap="butt" stroke-linejoin="round" stroke-miterlimit="10" stroke-opacity="1" fill="#A5A5A5" fill-rule="nonzero" fill-opacity="1"/></g><g clip-path="url(#clip41)"><text fill="#595959" fill-opacity="1" font-family="Calibri,Calibri_MSFontService,sans-serif" font-style="normal" font-variant="normal" font-weight="400" font-stretch="normal" font-size="41" text-anchor="start" direction="ltr" writing-mode="lr-tb" unicode-bidi="normal" text-decoration="none" transform="matrix(1 0 0 1 3628.42 2701)">Amsahl's 99.9%</text></g><g clip-path="url(#clip42)"><path d="M4108.5 2688.06 4129.12 2688.06C4131.02 2688.06 4132.56 2689.6 4132.56 2691.5 4132.56 2693.4 4131.02 2694.94 4129.12 2694.94L4108.5 2694.94C4106.6 2694.94 4105.06 2693.4 4105.06 2691.5 4105.06 2689.6 4106.6 2688.06 4108.5 2688.06ZM4156.62 2688.06 4177.25 2688.06C4179.15 2688.06 4180.69 2689.6 4180.69 2691.5 4180.69 2693.4 4179.15 2694.94 4177.25 2694.94L4156.62 2694.94C4154.73 2694.94 4153.19 2693.4 4153.19 2691.5 4153.19 2689.6 4154.73 2688.06 4156.62 2688.06ZM4204.75 2688.06 4224.5 2688.06C4226.4 2688.06 4227.94 2689.6 4227.94 2691.5 4227.94 2693.4 4226.4 2694.94 4224.5 2694.94L4204.75 2694.94C4202.85 2694.94 4201.31 2693.4 4201.31 2691.5 4201.31 2689.6 4202.85 2688.06 4204.75 2688.06Z" fill="#FFC000" fill-rule="nonzero" fill-opacity="1"/></g><g clip-path="url(#clip43)"><path d="M4177 2691C4177 2697.07 4172.08 2702 4166 2702 4159.92 2702 4155 2697.07 4155 2691 4155 2684.92 4159.92 2680 4166 2680 4172.08 2680 4177 2684.92 4177 2691Z" stroke="#FFC000" stroke-width="3.4375" stroke-linecap="butt" stroke-linejoin="round" stroke-miterlimit="10" stroke-opacity="1" fill="#FFC000" fill-rule="nonzero" fill-opacity="1"/></g><g clip-path="url(#clip44)"><text fill="#595959" fill-opacity="1" font-family="Calibri,Calibri_MSFontService,sans-serif" font-style="normal" font-variant="normal" font-weight="400" font-stretch="normal" font-size="41" text-anchor="start" direction="ltr" writing-mode="lr-tb" unicode-bidi="normal" text-decoration="none" transform="matrix(1 0 0 1 4236.72 2701)">Amdahl's 99.95%</text></g><rect x="3158.5" y="2553.5" width="1650" height="990" stroke="#D9D9D9" stroke-width="3.4375" stroke-linecap="butt" stroke-linejoin="round" stroke-miterlimit="10" stroke-opacity="1" fill="none"/></g></svg>