<svg width="1654" height="1000" xmlns="http://www.w3.org/2000/svg" xmlns:xlink="http://www.w3.org/1999/xlink" overflow="hidden"><defs><clipPath id="clip0"><rect x="3089" y="705" width="1654" height="1000"/></clipPath><clipPath id="clip1"><rect x="3091" y="710" width="1650" height="990"/></clipPath><clipPath id="clip2"><rect x="3091" y="710" width="1650" height="990"/></clipPath><clipPath id="clip3"><rect x="3091" y="710" width="1650" height="990"/></clipPath><clipPath id="clip4"><rect x="3091" y="710" width="1650" height="990"/></clipPath><clipPath id="clip5"><rect x="3350" y="766" width="1288" height="697"/></clipPath><clipPath id="clip6"><rect x="3091" y="710" width="1650" height="990"/></clipPath><clipPath id="clip7"><rect x="3091" y="710" width="1650" height="990"/></clipPath><clipPath id="clip8"><rect x="3091" y="710" width="1650" height="990"/></clipPath><clipPath id="clip9"><rect x="3091" y="710" width="1650" height="990"/></clipPath><clipPath id="clip10"><rect x="3091" y="710" width="1650" height="990"/></clipPath><clipPath id="clip11"><rect x="3091" y="710" width="1650" height="990"/></clipPath><clipPath id="clip12"><rect x="3091" y="710" width="1650" height="990"/></clipPath><clipPath id="clip13"><rect x="3091" y="710" width="1650" height="990"/></clipPath><clipPath id="clip14"><rect x="3091" y="710" width="1650" height="990"/></clipPath><clipPath id="clip15"><rect x="3091" y="710" width="1650" height="990"/></clipPath><clipPath id="clip16"><rect x="3091" y="710" width="1650" height="990"/></clipPath><clipPath id="clip17"><rect x="3091" y="710" width="1650" height="990"/></clipPath><clipPath id="clip18"><rect x="3091" y="710" width="1650" height="990"/></clipPath><clipPath id="clip19"><rect x="3091" y="710" width="1650" height="990"/></clipPath><clipPath id="clip20"><rect x="3091" y="710" width="1650" height="990"/></clipPath><clipPath id="clip21"><rect x="3091" y="710" width="1650" height="990"/></clipPath><clipPath id="clip22"><rect x="3091" y="710" width="1650" height="990"/></clipPath></defs><g clip-path="url(#clip0)" transform="translate(-3089 -705)"><rect x="3091" y="710" width="1650" height="990" fill="#FFFFFF" fill-opacity="1"/><g clip-path="url(#clip1)"><path d="M3350.5 1344.54 4635.5 1344.54M3350.5 1229.54 4635.5 1229.54M3350.5 1113.54 4635.5 1113.54M3350.5 997.533 4635.5 997.533M3350.5 882.529 4635.5 882.529M3350.5 766.5 4635.5 766.5" stroke="#D9D9D9" stroke-width="3.4375" stroke-linecap="butt" stroke-linejoin="round" stroke-miterlimit="10" stroke-opacity="1" fill="none" fill-rule="nonzero"/></g><g clip-path="url(#clip2)"><path d="M3547.62 766.5 3547.62 1460.5M3745.62 766.5 3745.62 1460.5M3943.63 766.5 3943.63 1460.5M4140.64 766.5 4140.64 1460.5M4338.64 766.5 4338.64 1460.5M4536.5 766.5 4536.5 1460.5" stroke="#D9D9D9" stroke-width="3.4375" stroke-linecap="butt" stroke-linejoin="round" stroke-miterlimit="10" stroke-opacity="1" fill="none" fill-rule="nonzero"/></g><g clip-path="url(#clip3)"><path d="M0 0 0.000360892 694" stroke="#BFBFBF" stroke-width="3.4375" stroke-linecap="butt" stroke-linejoin="round" stroke-miterlimit="10" stroke-opacity="1" fill="none" fill-rule="evenodd" transform="matrix(1 0 0 -1 3350.5 1460.5)"/></g><g clip-path="url(#clip4)"><path d="M3350.5 1460.5 4635.5 1460.5" stroke="#BFBFBF" stroke-width="3.4375" stroke-linecap="butt" stroke-linejoin="round" stroke-miterlimit="10" stroke-opacity="1" fill="none" fill-rule="evenodd"/></g><g clip-path="url(#clip5)"><path d="M4635.5 1225.5 4536.65 1223.54 4437.65 1196.54 4338.64 1168.54 4239.64 1125.54 4140.64 1105.54 4042.63 1097.54 3943.63 1089.54 3844.63 991.533 3745.62 971.532 3646.62 968.532 3547.62 923.531 3449.61 868.5 3350.5 882.529" stroke="#4472C4" stroke-width="6.875" stroke-linecap="round" stroke-linejoin="round" stroke-miterlimit="10" stroke-opacity="1" fill="none" fill-rule="nonzero"/></g><g clip-path="url(#clip6)"><path d="M4646.96 1225.92C4646.96 1231.99 4642.03 1236.92 4635.96 1236.92 4629.88 1236.92 4624.96 1231.99 4624.96 1225.92 4624.96 1219.84 4629.88 1214.92 4635.96 1214.92 4642.03 1214.92 4646.96 1219.84 4646.96 1225.92Z" stroke="#4472C4" stroke-width="3.4375" stroke-linecap="butt" stroke-linejoin="round" stroke-miterlimit="10" stroke-opacity="1" fill="#4472C4" fill-rule="nonzero" fill-opacity="1"/><path d="M4547.96 1223.92C4547.96 1229.99 4543.03 1234.92 4536.96 1234.92 4530.88 1234.92 4525.96 1229.99 4525.96 1223.92 4525.96 1217.84 4530.88 1212.92 4536.96 1212.92 4543.03 1212.92 4547.96 1217.84 4547.96 1223.92Z" stroke="#4472C4" stroke-width="3.4375" stroke-linecap="butt" stroke-linejoin="round" stroke-miterlimit="10" stroke-opacity="1" fill="#4472C4" fill-rule="nonzero" fill-opacity="1"/><path d="M4448.96 1196.92C4448.96 1202.99 4444.03 1207.92 4437.96 1207.92 4431.88 1207.92 4426.96 1202.99 4426.96 1196.92 4426.96 1190.84 4431.88 1185.92 4437.96 1185.92 4444.03 1185.92 4448.96 1190.84 4448.96 1196.92Z" stroke="#4472C4" stroke-width="3.4375" stroke-linecap="butt" stroke-linejoin="round" stroke-miterlimit="10" stroke-opacity="1" fill="#4472C4" fill-rule="nonzero" fill-opacity="1"/><path d="M4349.96 1168.92C4349.96 1174.99 4345.03 1179.92 4338.96 1179.92 4332.88 1179.92 4327.96 1174.99 4327.96 1168.92 4327.96 1162.84 4332.88 1157.92 4338.96 1157.92 4345.03 1157.92 4349.96 1162.84 4349.96 1168.92Z" stroke="#4472C4" stroke-width="3.4375" stroke-linecap="butt" stroke-linejoin="round" stroke-miterlimit="10" stroke-opacity="1" fill="#4472C4" fill-rule="nonzero" fill-opacity="1"/><path d="M4250.96 1125.92C4250.96 1131.99 4246.03 1136.92 4239.96 1136.92 4233.88 1136.92 4228.96 1131.99 4228.96 1125.92 4228.96 1119.84 4233.88 1114.92 4239.96 1114.92 4246.03 1114.92 4250.96 1119.84 4250.96 1125.92Z" stroke="#4472C4" stroke-width="3.4375" stroke-linecap="butt" stroke-linejoin="round" stroke-miterlimit="10" stroke-opacity="1" fill="#4472C4" fill-rule="nonzero" fill-opacity="1"/><path d="M4152.96 1105.92C4152.96 1111.99 4148.03 1116.92 4141.96 1116.92 4135.88 1116.92 4130.96 1111.99 4130.96 1105.92 4130.96 1099.84 4135.88 1094.92 4141.96 1094.92 4148.03 1094.92 4152.96 1099.84 4152.96 1105.92Z" stroke="#4472C4" stroke-width="3.4375" stroke-linecap="butt" stroke-linejoin="round" stroke-miterlimit="10" stroke-opacity="1" fill="#4472C4" fill-rule="nonzero" fill-opacity="1"/><path d="M4053.96 1097.92C4053.96 1103.99 4049.03 1108.92 4042.96 1108.92 4036.88 1108.92 4031.96 1103.99 4031.96 1097.92 4031.96 1091.84 4036.88 1086.92 4042.96 1086.92 4049.03 1086.92 4053.96 1091.84 4053.96 1097.92Z" stroke="#4472C4" stroke-width="3.4375" stroke-linecap="butt" stroke-linejoin="round" stroke-miterlimit="10" stroke-opacity="1" fill="#4472C4" fill-rule="nonzero" fill-opacity="1"/><path d="M3954.96 1089.92C3954.96 1095.99 3950.03 1100.92 3943.96 1100.92 3937.88 1100.92 3932.96 1095.99 3932.96 1089.92 3932.96 1083.84 3937.88 1078.92 3943.96 1078.92 3950.03 1078.92 3954.96 1083.84 3954.96 1089.92Z" stroke="#4472C4" stroke-width="3.4375" stroke-linecap="butt" stroke-linejoin="round" stroke-miterlimit="10" stroke-opacity="1" fill="#4472C4" fill-rule="nonzero" fill-opacity="1"/><path d="M3855.96 991.916C3855.96 997.991 3851.03 1002.92 3844.96 1002.92 3838.88 1002.92 3833.96 997.991 3833.96 991.916 3833.96 985.841 3838.88 980.917 3844.96 980.917 3851.03 980.917 3855.96 985.841 3855.96 991.916Z" stroke="#4472C4" stroke-width="3.4375" stroke-linecap="butt" stroke-linejoin="round" stroke-miterlimit="10" stroke-opacity="1" fill="#4472C4" fill-rule="nonzero" fill-opacity="1"/><path d="M3756.96 971.916C3756.96 977.991 3752.03 982.916 3745.96 982.916 3739.88 982.916 3734.96 977.991 3734.96 971.916 3734.96 965.841 3739.88 960.917 3745.96 960.917 3752.03 960.917 3756.96 965.841 3756.96 971.916Z" stroke="#4472C4" stroke-width="3.4375" stroke-linecap="butt" stroke-linejoin="round" stroke-miterlimit="10" stroke-opacity="1" fill="#4472C4" fill-rule="nonzero" fill-opacity="1"/><path d="M3657.96 968.917C3657.96 974.992 3653.03 979.916 3646.96 979.916 3640.88 979.916 3635.96 974.992 3635.96 968.917 3635.96 962.842 3640.88 957.917 3646.96 957.917 3653.03 957.917 3657.96 962.842 3657.96 968.917Z" stroke="#4472C4" stroke-width="3.4375" stroke-linecap="butt" stroke-linejoin="round" stroke-miterlimit="10" stroke-opacity="1" fill="#4472C4" fill-rule="nonzero" fill-opacity="1"/><path d="M3558.96 923.917C3558.96 929.992 3554.03 934.916 3547.96 934.916 3541.88 934.916 3536.96 929.992 3536.96 923.917 3536.96 917.842 3541.88 912.917 3547.96 912.917 3554.03 912.917 3558.96 917.842 3558.96 923.917Z" stroke="#4472C4" stroke-width="3.4375" stroke-linecap="butt" stroke-linejoin="round" stroke-miterlimit="10" stroke-opacity="1" fill="#4472C4" fill-rule="nonzero" fill-opacity="1"/><path d="M3460.96 868.917C3460.96 874.992 3456.03 879.916 3449.96 879.916 3443.88 879.916 3438.96 874.992 3438.96 868.917 3438.96 862.842 3443.88 857.917 3449.96 857.917 3456.03 857.917 3460.96 862.842 3460.96 868.917Z" stroke="#4472C4" stroke-width="3.4375" stroke-linecap="butt" stroke-linejoin="round" stroke-miterlimit="10" stroke-opacity="1" fill="#4472C4" fill-rule="nonzero" fill-opacity="1"/><path d="M3361.96 882.916C3361.96 888.991 3357.03 893.916 3350.96 893.916 3344.88 893.916 3339.96 888.991 3339.96 882.916 3339.96 876.841 3344.88 871.917 3350.96 871.917 3357.03 871.917 3361.96 876.841 3361.96 882.916Z" stroke="#4472C4" stroke-width="3.4375" stroke-linecap="butt" stroke-linejoin="round" stroke-miterlimit="10" stroke-opacity="1" fill="#4472C4" fill-rule="nonzero" fill-opacity="1"/></g><g clip-path="url(#clip7)"><text fill="#595959" fill-opacity="1" font-family="Calibri,Calibri_MSFontService,sans-serif" font-style="normal" font-variant="normal" font-weight="400" font-stretch="normal" font-size="55" text-anchor="start" direction="ltr" writing-mode="lr-tb" unicode-bidi="normal" text-decoration="none" transform="matrix(1 0 0 1 3271.4 1475)">0</text></g><g clip-path="url(#clip8)"><text fill="#595959" fill-opacity="1" font-family="Calibri,Calibri_MSFontService,sans-serif" font-style="normal" font-variant="normal" font-weight="400" font-stretch="normal" font-size="55" text-anchor="start" direction="ltr" writing-mode="lr-tb" unicode-bidi="normal" text-decoration="none" transform="matrix(1 0 0 1 3229.65 1359)">0.2</text></g><g clip-path="url(#clip9)"><text fill="#595959" fill-opacity="1" font-family="Calibri,Calibri_MSFontService,sans-serif" font-style="normal" font-variant="normal" font-weight="400" font-stretch="normal" font-size="55" text-anchor="start" direction="ltr" writing-mode="lr-tb" unicode-bidi="normal" text-decoration="none" transform="matrix(1 0 0 1 3229.65 1244)">0.4</text></g><g clip-path="url(#clip10)"><text fill="#595959" fill-opacity="1" font-family="Calibri,Calibri_MSFontService,sans-serif" font-style="normal" font-variant="normal" font-weight="400" font-stretch="normal" font-size="55" text-anchor="start" direction="ltr" writing-mode="lr-tb" unicode-bidi="normal" text-decoration="none" transform="matrix(1 0 0 1 3229.65 1128)">0.6</text></g><g clip-path="url(#clip11)"><text fill="#595959" fill-opacity="1" font-family="Calibri,Calibri_MSFontService,sans-serif" font-style="normal" font-variant="normal" font-weight="400" font-stretch="normal" font-size="55" text-anchor="start" direction="ltr" writing-mode="lr-tb" unicode-bidi="normal" text-decoration="none" transform="matrix(1 0 0 1 3229.65 1013)">0.8</text></g><g clip-path="url(#clip12)"><text fill="#595959" fill-opacity="1" font-family="Calibri,Calibri_MSFontService,sans-serif" font-style="normal" font-variant="normal" font-weight="400" font-stretch="normal" font-size="55" text-anchor="start" direction="ltr" writing-mode="lr-tb" unicode-bidi="normal" text-decoration="none" transform="matrix(1 0 0 1 3271.4 897)">1</text></g><g clip-path="url(#clip13)"><text fill="#595959" fill-opacity="1" font-family="Calibri,Calibri_MSFontService,sans-serif" font-style="normal" font-variant="normal" font-weight="400" font-stretch="normal" font-size="55" text-anchor="start" direction="ltr" writing-mode="lr-tb" unicode-bidi="normal" text-decoration="none" transform="matrix(1 0 0 1 3229.65 782)">1.2</text></g><g clip-path="url(#clip14)"><text fill="#595959" fill-opacity="1" font-family="Calibri,Calibri_MSFontService,sans-serif" font-style="normal" font-variant="normal" font-weight="400" font-stretch="normal" font-size="55" text-anchor="start" direction="ltr" writing-mode="lr-tb" unicode-bidi="normal" text-decoration="none" transform="matrix(1 0 0 1 3336.36 1547)">1</text></g><g clip-path="url(#clip15)"><text fill="#595959" fill-opacity="1" font-family="Calibri,Calibri_MSFontService,sans-serif" font-style="normal" font-variant="normal" font-weight="400" font-stretch="normal" font-size="55" text-anchor="start" direction="ltr" writing-mode="lr-tb" unicode-bidi="normal" text-decoration="none" transform="matrix(1 0 0 1 3534.06 1547)">4</text></g><g clip-path="url(#clip16)"><text fill="#595959" fill-opacity="1" font-family="Calibri,Calibri_MSFontService,sans-serif" font-style="normal" font-variant="normal" font-weight="400" font-stretch="normal" font-size="55" text-anchor="start" direction="ltr" writing-mode="lr-tb" unicode-bidi="normal" text-decoration="none" transform="matrix(1 0 0 1 3717.82 1547)">16</text></g><g clip-path="url(#clip17)"><text fill="#595959" fill-opacity="1" font-family="Calibri,Calibri_MSFontService,sans-serif" font-style="normal" font-variant="normal" font-weight="400" font-stretch="normal" font-size="55" text-anchor="start" direction="ltr" writing-mode="lr-tb" unicode-bidi="normal" text-decoration="none" transform="matrix(1 0 0 1 3915.51 1547)">64</text></g><g clip-path="url(#clip18)"><text fill="#595959" fill-opacity="1" font-family="Calibri,Calibri_MSFontService,sans-serif" font-style="normal" font-variant="normal" font-weight="400" font-stretch="normal" font-size="55" text-anchor="start" direction="ltr" writing-mode="lr-tb" unicode-bidi="normal" text-decoration="none" transform="matrix(1 0 0 1 4099.27 1547)">256</text></g><g clip-path="url(#clip19)"><text fill="#595959" fill-opacity="1" font-family="Calibri,Calibri_MSFontService,sans-serif" font-style="normal" font-variant="normal" font-weight="400" font-stretch="normal" font-size="55" text-anchor="start" direction="ltr" writing-mode="lr-tb" unicode-bidi="normal" text-decoration="none" transform="matrix(1 0 0 1 4283.03 1547)">1024</text></g><g clip-path="url(#clip20)"><text fill="#595959" fill-opacity="1" font-family="Calibri,Calibri_MSFontService,sans-serif" font-style="normal" font-variant="normal" font-weight="400" font-stretch="normal" font-size="55" text-anchor="start" direction="ltr" writing-mode="lr-tb" unicode-bidi="normal" text-decoration="none" transform="matrix(1 0 0 1 4480.73 1547)">4096</text></g><g clip-path="url(#clip21)"><text fill="#595959" fill-opacity="1" font-family="Calibri,Calibri_MSFontService,sans-serif" font-style="normal" font-variant="normal" font-weight="400" font-stretch="normal" font-size="55" text-anchor="start" direction="ltr" writing-mode="lr-tb" unicode-bidi="normal" text-decoration="none" transform="matrix(6.12323e-17 -1 1 6.12323e-17 3200.75 1282)">Weak Efficiency </text></g><g clip-path="url(#clip22)"><text fill="#595959" fill-opacity="1" font-family="Calibri,Calibri_MSFontService,sans-serif" font-style="normal" font-variant="normal" font-weight="400" font-stretch="normal" font-size="55" text-anchor="start" direction="ltr" writing-mode="lr-tb" unicode-bidi="normal" text-decoration="none" transform="matrix(1 0 0 1 3811.6 1628)">number of CPUs</text></g><rect x="3091.5" y="710.5" width="1650" height="990" stroke="#D9D9D9" stroke-width="3.4375" stroke-linecap="butt" stroke-linejoin="round" stroke-miterlimit="10" stroke-opacity="1" fill="none"/></g></svg>